<?xml version="1.0" encoding="UTF-8"?>
<svg width="47px" height="47px" viewBox="0 0 47 47" version="1.1" xmlns="http://www.w3.org/2000/svg" xmlns:xlink="http://www.w3.org/1999/xlink">
    <!-- Generator: Sketch 46.2 (44496) - http://www.bohemiancoding.com/sketch -->
    <title>i icon specials</title>
    <desc>Created with Sketch.</desc>
    <defs></defs>
    <g id="Themen" stroke="none" stroke-width="1" fill="none" fill-rule="evenodd">
        <g id="Landingpage-S-Special-Features" transform="translate(-745.000000, -547.000000)">
            <g id="Group-3" transform="translate(710.000000, 527.000000)">
                <g id="Group-2" transform="translate(35.000000, 20.000000)">
                    <g id="i-icon-specials">
                        <circle id="Oval-2" fill="#FFFFFF" cx="23.1000004" cy="23.1000004" r="23.1000004"></circle>
                        <path d="M28.5714286,32.7857143 L28.5714286,29.5714286 C28.5714286,29.3839276 28.5111613,29.2299113 28.390625,29.109375 C28.2700887,28.9888387 28.1160724,28.9285714 27.9285714,28.9285714 L26,28.9285714 L26,18.6428571 C26,18.4553562 25.9397327,18.3013399 25.8191964,18.1808036 C25.6986601,18.0602673 25.5446438,18 25.3571429,18 L18.9285714,18 C18.7410705,18 18.5870542,18.0602673 18.4665179,18.1808036 C18.3459815,18.3013399 18.2857143,18.4553562 18.2857143,18.6428571 L18.2857143,21.8571429 C18.2857143,22.0446438 18.3459815,22.1986601 18.4665179,22.3191964 C18.5870542,22.4397327 18.7410705,22.5 18.9285714,22.5 L20.8571429,22.5 L20.8571429,28.9285714 L18.9285714,28.9285714 C18.7410705,28.9285714 18.5870542,28.9888387 18.4665179,29.109375 C18.3459815,29.2299113 18.2857143,29.3839276 18.2857143,29.5714286 L18.2857143,32.7857143 C18.2857143,32.9732152 18.3459815,33.1272315 18.4665179,33.2477679 C18.5870542,33.3683042 18.7410705,33.4285714 18.9285714,33.4285714 L27.9285714,33.4285714 C28.1160724,33.4285714 28.2700887,33.3683042 28.390625,33.2477679 C28.5111613,33.1272315 28.5714286,32.9732152 28.5714286,32.7857143 Z M26,14.7857143 L26,11.5714286 C26,11.3839276 25.9397327,11.2299113 25.8191964,11.109375 C25.6986601,10.9888387 25.5446438,10.9285714 25.3571429,10.9285714 L21.5,10.9285714 C21.3124991,10.9285714 21.1584827,10.9888387 21.0379464,11.109375 C20.9174101,11.2299113 20.8571429,11.3839276 20.8571429,11.5714286 L20.8571429,14.7857143 C20.8571429,14.9732152 20.9174101,15.1272315 21.0379464,15.2477679 C21.1584827,15.3683042 21.3124991,15.4285714 21.5,15.4285714 L25.3571429,15.4285714 C25.5446438,15.4285714 25.6986601,15.3683042 25.8191964,15.2477679 C25.9397327,15.1272315 26,14.9732152 26,14.7857143 Z M38.8571429,23.1428571 C38.8571429,25.9419783 38.1674176,28.5234257 36.7879464,30.8872768 C35.4084752,33.2511279 33.5368422,35.122761 31.1729911,36.5022321 C28.80914,37.8817033 26.2276926,38.5714286 23.4285714,38.5714286 C20.6294503,38.5714286 18.0480029,37.8817033 15.6841518,36.5022321 C13.3203007,35.122761 11.4486676,33.2511279 10.0691964,30.8872768 C8.68972525,28.5234257 8,25.9419783 8,23.1428571 C8,20.343736 8.68972525,17.7622886 10.0691964,15.3984375 C11.4486676,13.0345864 13.3203007,11.1629533 15.6841518,9.78348214 C18.0480029,8.40401096 20.6294503,7.71428571 23.4285714,7.71428571 C26.2276926,7.71428571 28.80914,8.40401096 31.1729911,9.78348214 C33.5368422,11.1629533 35.4084752,13.0345864 36.7879464,15.3984375 C38.1674176,17.7622886 38.8571429,20.343736 38.8571429,23.1428571 Z" id="ïš" fill="#E04E39"></path>
                    </g>
                </g>
            </g>
        </g>
    </g>
</svg>