<?xml version="1.0" encoding="utf-8"?>
<!-- Generator: Adobe Illustrator 16.0.0, SVG Export Plug-In . SVG Version: 6.00 Build 0)  -->
<!DOCTYPE svg PUBLIC "-//W3C//DTD SVG 1.1//EN" "http://www.w3.org/Graphics/SVG/1.1/DTD/svg11.dtd">
<svg xmlns="http://www.w3.org/2000/svg" xmlns:xlink="http://www.w3.org/1999/xlink" version="1.1" id="Target_x5F_Location005" x="0px" y="0px" width="512" height="512" viewBox="0 0 144.083 144" enable-background="new 0 0 144.083 144" xml:space="preserve" fill="#72FF2E">
<path d="M72.042,32.691c-21.675,0-39.309,17.634-39.309,39.309s17.634,39.309,39.309,39.309c21.675,0,39.309-17.634,39.309-39.309  S93.716,32.691,72.042,32.691z M75.042,105.167V95.009h-6v10.158C53.065,103.733,40.308,90.976,38.874,75h10.171v-6H38.874  c1.434-15.976,14.191-28.733,30.167-30.167v10.184h6V38.833C91.017,40.267,103.775,53.024,105.208,69H95.038v6h10.171  C103.775,90.976,91.017,103.733,75.042,105.167z"/>
</svg>
