<?xml version="1.0" encoding="utf-8"?>
<!-- Generator: Adobe Illustrator 21.1.0, SVG Export Plug-In . SVG Version: 6.00 Build 0)  -->
<svg version="1.1" id="Ebene_1" xmlns="http://www.w3.org/2000/svg" xmlns:xlink="http://www.w3.org/1999/xlink" x="0px" y="0px"
	 width="510.2px" height="142.3px" viewBox="0 0 510.2 142.3" style="enable-background:new 0 0 510.2 142.3;" xml:space="preserve"
	>
<style type="text/css">
	.st0{fill:#FFFFFF;}
</style>
<path class="st0" d="M10.7,0H33v142.3H0V10.7C0,4.8,4.8,0,10.7,0z M185.9,0.3c-4.5,0.1-9,1.3-11.5,4.7c-1.4,1.9-2.2,3.5-2.2,3.5
	l-0.5,0.9l-50.2,100.2l-27,0V0H72.2c-5.9,0-10.7,4.8-10.7,10.7v131.6l68.6,0c0,0,0.4,0,1.2,0c2.3-0.1,7.5-0.4,10.5-2.3
	c3-1.8,5.8-6.3,6.9-8.3c0.4-0.6,0.6-1,0.6-1l47.8-94.8l22.2,44.3l-16.8,0c0,0-6.6-0.2-10.4,2c-4.2,2.2-6.4,8.2-6.4,8.2l-9,20.3h58.5
	l15.6,31.6h27.1c0,0,6.5,0,8-2c1.6-2.1-0.6-6.2-1.2-7.5c-0.5-1.2-62.9-124-62.9-124s-1-2-2.4-3.9c-2.5-3.3-7-4.6-11.5-4.7
	C207.6,0.3,185.9,0.3,185.9,0.3z M312.8,33.4c0-5.8-3.6-9.9-9.5-11.2v-0.5c4.4-1.9,6.7-5.9,6.7-10.1c0-7.7-5.5-11.6-14.3-11.6
	c-3.1,0-10.3,0.3-10.3,0.3h-4.8v45.4h5.2c0,0,8.9,0.3,11.5,0.3C307.2,46.2,312.8,40.6,312.8,33.4z M300.2,13.1
	c0,4.3-2.2,6.3-7.3,6.3h-2.7V7.5c0.6-0.1,2.3-0.1,3.1-0.1C297.4,7.4,300.2,9,300.2,13.1z M302.4,32.7c0,4-3.1,5.6-7.5,5.6
	c-1,0-3.6,0-4.7-0.1V26.5h3.3C299.8,26.5,302.4,29,302.4,32.7z M352.9,37h-19.7v-9.7h16.1v-8.7h-16.1V9.3h17.3l0.7-8.9h-28.1v45.4
	h29.1L352.9,37z M401.9,45.8l-14-20.3V25c4.8-2,7.9-6.4,7.9-11.9c0-8.6-6.3-13.1-15.2-13.1c-2,0-10.9,0.4-10.9,0.4h-6.1v45.4h9.9
	V28.6h5.3l11.7,18L401.9,45.8z M385.4,14.3c0,4-2.9,6.7-7.3,6.7h-4.6V8c1.6-0.1,3.5-0.1,4.5-0.1C382.7,7.9,385.4,9.9,385.4,14.3z
	 M438.3,36.9h-19.5V0.4h-10.3v45.4h29.1L438.3,36.9z M457.6,45.8V0.4h-10.3v45.4H457.6z M510.2,45.7V0.4h-9.3v23.8
	c0,1.2,0.1,2.7,0.1,3.5h-0.5c-0.3-0.9-1.3-2.6-2.1-3.7L481.1,0.4h-10.9v45.4h9.3V17.7c0-1.1-0.1-2.7-0.1-3.5h0.5
	c0.3,0.9,1.3,2.6,2.1,3.7l20.3,28.7L510.2,45.7z"/>
</svg>
