<?xml version="1.0" encoding="UTF-8"?>
<svg width="25px" height="27px" viewBox="0 0 25 27" version="1.1" xmlns="http://www.w3.org/2000/svg" xmlns:xlink="http://www.w3.org/1999/xlink">
    <!-- Generator: Sketch 59.1 (86144) - https://sketch.com -->
    <title>export/calendar-icon</title>
    <desc>Created with Sketch.</desc>
    <g id="Symbols" stroke="none" stroke-width="1" fill="none" fill-rule="evenodd">
        <g id="export/calendar-icon" fill="#353A45" fill-rule="nonzero">
            <g>
                <path d="M6.04632139,1.22623168 L6.04632139,2.43361698 L3.63157909,2.43361698 C3.14259186,2.43361698 2.67412059,2.53141442 2.24552103,2.70889868 C1.80240465,2.89241038 1.40397061,3.16166463 1.07073488,3.49490037 C0.737499136,3.82813611 0.468244886,4.22657014 0.284733187,4.66968652 C0.107248934,5.09831438 0.0094514892,5.56675735 0.0094514892,6.05574458 L0.0094514892,22.9589973 C0.0094514892,23.4479845 0.107248934,23.9164558 0.284733187,24.3450553 C0.468244886,24.7893602 0.737499136,25.1877943 1.07073488,25.52103 C1.40397061,25.8542657 1.80240465,26.12352 2.24670954,26.3070317 C2.67412059,26.4832991 3.14259186,26.5810966 3.63157909,26.5810966 L20.5348318,26.5810966 C21.023819,26.5810966 21.4922903,26.4832991 21.9208898,26.3058149 C22.3651947,26.1223032 22.7636288,25.8530489 23.0968645,25.5198132 C23.4301002,25.1865774 23.6993545,24.7881434 23.8828662,24.3438385 C24.0591336,23.9164275 24.1569311,23.4479562 24.1569311,22.958969 L24.1569311,6.05571628 C24.1569311,5.56672905 24.0591336,5.09825779 23.8816494,4.66965822 C23.6981377,4.22535333 23.4288834,3.8269193 23.0956477,3.49368356 C22.762412,3.16044782 22.3639779,2.89119357 21.919673,2.70768187 C21.492262,2.53141442 21.0237907,2.43361698 20.5348035,2.43361698 L18.1200612,2.43361698 L18.1200612,1.22623168 C18.1200612,0.559760203 17.5791474,0.0188463827 16.9126759,0.0188463827 C16.2462044,0.0188463827 15.7052906,0.559760203 15.7052906,1.22623168 L15.7052906,2.43361698 L8.46103539,2.43361698 L8.46103539,1.22623168 C8.46103539,0.559760203 7.92012157,0.0188463827 7.25365009,0.0188463827 C6.58717861,0.0188463827 6.04626479,0.559760203 6.04626479,1.22623168 L6.04632139,1.22623168 Z M21.7422171,9.67787218 L2.42416549,9.67787218 L2.42416549,6.05574458 C2.42416549,5.89034352 2.45676464,5.73459203 2.51471868,5.59451756 C2.57507804,5.44722714 2.66563123,5.31439693 2.77791719,5.20211098 C2.89020314,5.08982502 3.02300505,5.00048864 3.17032378,4.93891247 C3.31036994,4.88095843 3.46612143,4.84835928 3.63155079,4.84835928 L6.04629309,4.84835928 L6.04629309,6.05574458 C6.04629309,6.72221606 6.58720691,7.26312988 7.25367839,7.26312988 C7.92014987,7.26312988 8.46106369,6.72221606 8.46106369,6.05574458 L8.46106369,4.84835928 L15.7053189,4.84835928 L15.7053189,6.05574458 C15.7053189,6.72221606 16.2462327,7.26312988 16.9127042,7.26312988 C17.5791757,7.26312988 18.1200895,6.72221606 18.1200895,6.05574458 L18.1200895,4.84835928 L20.5348318,4.84835928 C20.7002328,4.84835928 20.8559843,4.88095843 20.9960588,4.93891247 C21.1433492,4.99927183 21.2761794,5.08982502 21.3884654,5.20211098 C21.5007513,5.31439693 21.5900877,5.44719884 21.6516639,5.59451756 C21.7096179,5.73456373 21.7422171,5.89031522 21.7422171,6.05574458 L21.7422171,9.67787218 Z M2.42419379,12.0926145 L21.7422171,12.0926145 L21.7422171,22.9589973 C21.7422171,23.1243983 21.7096179,23.2801498 21.6516639,23.4202243 C21.5913045,23.5675147 21.5007513,23.7003449 21.3884654,23.8126309 C21.2761794,23.9249168 21.1433775,24.0142532 20.9960588,24.0758294 C20.8560126,24.1337834 20.7002611,24.1663826 20.5348318,24.1663826 L3.63157909,24.1663826 C3.46617803,24.1663826 3.31042654,24.1337834 3.17035207,24.0758294 C3.02306165,24.01547 2.89023144,23.9249168 2.77794548,23.8126309 C2.66565953,23.7003449 2.57632315,23.567543 2.51474698,23.4202243 C2.45679294,23.2801781 2.42419379,23.1244266 2.42419379,22.9589973 L2.42419379,12.0926145 Z" id="Shape"></path>
                <path d="M9.05869985,17.4719997 C9.05869985,17.2465986 9.11259931,17.0579505 9.22039984,16.9060497 C9.32820038,16.754149 9.47029896,16.6781997 9.64669984,16.6781997 L11.2195998,16.6781997 L11.2195998,15.1199997 C11.2195998,14.963199 11.297999,14.8235504 11.4547998,14.7010497 C11.6116006,14.5785491 11.7977987,14.5172998 12.0133998,14.5172998 C12.2388009,14.5172998 12.4249991,14.5785491 12.5719998,14.7010497 C12.7190005,14.8235504 12.7924998,14.963199 12.7924998,15.1199997 L12.7924998,16.6781997 L14.3506998,16.6781997 C14.5075005,16.6781997 14.6495991,16.7565989 14.7769997,16.9133997 C14.9044004,17.0702005 14.9680997,17.2563986 14.9680997,17.4719997 C14.9680997,17.6974008 14.9068504,17.883599 14.7843497,18.0305997 C14.6618491,18.1776004 14.5173006,18.2510997 14.3506998,18.2510997 L12.7924998,18.2510997 L12.7924998,19.8239997 C12.7924998,20.0004005 12.7214505,20.1424991 12.5793498,20.2502997 C12.4372491,20.3581002 12.248601,20.4119997 12.0133998,20.4119997 C11.7879987,20.4119997 11.5993506,20.3581002 11.4474498,20.2502997 C11.295549,20.1424991 11.2195998,20.0004005 11.2195998,19.8239997 L11.2195998,18.2510997 L9.64669984,18.2510997 C9.47029896,18.2510997 9.32820038,18.1800504 9.22039984,18.0379497 C9.11259931,17.895849 9.05869985,17.7072009 9.05869985,17.4719997 Z" id="+"></path>
            </g>
        </g>
    </g>
</svg>