<svg width="24" height="24" xmlns="http://www.w3.org/2000/svg"><path d="M20.7359988,14.9759991 L20.7359988,19.5839988 C20.7359988,19.9019508 20.6081268,20.1887988 20.3984628,20.3984628 C20.1887988,20.6081268 19.9019508,20.7359988 19.5839988,20.7359988 L3.45599979,20.7359988 C3.13804781,20.7359988 2.85119983,20.6081268 2.64153584,20.3984628 C2.43187186,20.1887988 2.30399986,19.9019508 2.30399986,19.5839988 L2.30399986,14.9759991 C2.30399986,14.3400951 1.78790389,13.8239992 1.15199993,13.8239992 C0.516095969,13.8239992 0,14.3400951 0,14.9759991 L0,19.5839988 C0,20.5378548 0.388223977,21.4041587 1.01260794,22.0273907 C1.6369919,22.6506226 2.50214385,23.0399986 3.45599979,23.0399986 L19.5839988,23.0399986 C20.5378548,23.0399986 21.4041587,22.6517746 22.0273907,22.0273907 C22.6506226,21.4030067 23.0399986,20.5378548 23.0399986,19.5839988 L23.0399986,14.9759991 C23.0399986,14.3400951 22.5239027,13.8239992 21.8879987,13.8239992 C21.2520947,13.8239992 20.7359988,14.3400951 20.7359988,14.9759991 Z M12.6719992,12.1950713 L12.6719992,1.15199993 C12.6719992,0.516095969 12.1559033,0 11.5199993,0 C10.8840954,0 10.3679994,0.516095969 10.3679994,1.15199993 L10.3679994,12.1950713 L6.57446361,8.4015355 C6.12403163,7.95110353 5.39481568,7.95110353 4.94553571,8.4015355 C4.49625573,8.85196747 4.49510373,9.58118343 4.94553571,10.0304634 L10.7055354,15.7904631 C10.8115194,15.8964471 10.9382393,15.981695 11.0787833,16.040447 C11.2193273,16.099199 11.3702393,16.127999 11.5199993,16.127999 C11.8149113,16.127999 12.1098233,16.015103 12.3344633,15.7904631 L18.0944629,10.0304634 C18.5448949,9.58003143 18.5448949,8.85081547 18.0944629,8.4015355 C17.6440309,7.95225553 16.914815,7.95110353 16.465535,8.4015355 L12.6719992,12.1950713 Z" fill="#353A45"/></svg>