
<svg width="160px" height="21px" viewBox="0 0 160 21" version="1.1" xmlns="http://www.w3.org/2000/svg" xmlns:xlink="http://www.w3.org/1999/xlink">
    <!-- Generator: Sketch 44 (41411) - http://www.bohemiancoding.com/sketch -->
    <desc>Created with Sketch.</desc>
    <defs></defs>
    <g id="Symbols" stroke="none" stroke-width="1" fill="none" fill-rule="evenodd">
        <g id="Messe_Berlin_Logo" fill="#FFFFFF">
            <g>
                <polygon id="path11763" fill-rule="nonzero" points="137.80005 3.84624023 137.80005 20.1085254 140.064176 20.1085254 140.064176 3.84624023"></polygon>
                <path d="M143.278402,4.27823163 L143.278402,6.75126874 L145.803284,6.75126874 L145.803284,4.27823163 L143.278402,4.27823163 Z M143.41196,8.98272382 L143.41196,20.1082121 L145.669726,20.1082121 L145.669726,8.98272382 L143.41196,8.98272382 Z" id="path11765" fill-rule="nonzero"></path>
                <path d="M129.620797,20.005112 L131.675,20.005112 L131.675,15.0393084 C131.675,12.2994895 132.870869,10.5873391 134.703305,10.5873391 C135.050475,10.5873391 135.465197,10.6297579 135.831622,10.7801511 L135.831622,8.98220302 C135.397642,8.89640325 135.089066,8.83278021 134.481462,8.83278021 C133.304849,8.83278021 132.128234,9.6454703 131.588188,10.7801511 L131.539968,10.7801511 L131.539968,9.08921521 L129.620797,9.08921521 L129.620797,20.005112 Z" id="path11769" stroke="#FFFFFF" stroke-width="1.02357757" fill-rule="nonzero"></path>
                <path d="M148.764588,20.005112 L150.81879,20.005112 L150.81879,14.9535087 C150.81879,12.2994895 151.860372,10.4591206 154.194263,10.4591206 C155.97848,10.5661348 156.547493,11.8078217 156.547493,14.3548368 L156.547493,20.005112 L158.592065,20.005112 L158.592065,13.5199721 C158.592065,10.5873391 157.309383,8.83278021 154.435364,8.83278021 C152.882619,8.83278021 151.407056,9.58183708 150.789826,10.8225698 L150.751312,10.8225698 L150.751312,9.08921521 L148.764588,9.08921521 L148.764588,20.005112 L148.764588,20.005112 Z" id="path11771" stroke="#FFFFFF" stroke-width="1.02357757" fill-rule="nonzero"></path>
                <g id="use11773" transform="translate(116.745585, 8.747813)" fill-rule="nonzero">
                    <path d="M5.42111336,0.00604412813 C3.84291884,0.0060461625 2.52436106,0.589456087 1.60517069,1.58268475 C0.685980311,2.57591342 0.167832282,3.97684507 0.167832282,5.6069328 C0.167832282,7.39202159 0.616955505,8.89078634 1.57337116,9.94269452 C2.52978682,10.9946027 3.9879267,11.5892668 5.96170523,11.5892668 C7.79120858,11.5892729 8.70259815,11.1573649 9.46601259,10.883593 L9.53597153,10.8581633 L9.53597153,10.7818742 L9.53597153,8.77928632 L9.53597153,8.56313397 L9.36425411,8.70299725 C9.13772348,8.88949248 8.63122476,9.15885593 8.02231428,9.37688397 C7.41340379,9.59491201 6.69698956,9.76468671 6.04438399,9.76468671 C4.20993112,9.76469281 2.58834272,8.38933732 2.53371674,6.35075116 L10.2800804,6.35075116 L10.3818388,6.35075116 L10.3818388,6.24903241 C10.3818368,4.49126731 10.0825712,2.93518201 9.30701497,1.81155194 C8.53145872,0.687921872 7.27854533,0.00604412812 5.42111336,0.00604412813 Z M5.38295393,1.83698163 C6.22864213,1.83698163 6.8749692,2.16253859 7.32272479,2.68887616 C7.75037494,3.19157836 7.9761607,3.88687077 7.99687466,4.65331952 L2.54643655,4.65331952 C2.63484227,3.99907266 2.86616166,3.31323805 3.29690527,2.78423749 C3.75256749,2.22463585 4.4178888,1.83698163 5.38295393,1.83698163 L5.38295393,1.83698163 Z" id="path11789"></path>
                </g>
                <path d="M104.998137,5.12376874 L104.998137,5.22548749 L104.998137,20.0192082 L104.998137,20.1209269 L105.106256,20.1209269 L109.144795,20.1209269 C110.691668,20.120929 112.150158,19.935457 113.234214,19.3326066 C114.318269,18.7297562 115.014987,17.6962083 115.014987,16.0776066 C115.014985,15.0150037 114.639439,14.1380579 113.997402,13.5092082 C113.424213,12.9477919 112.636556,12.5993808 111.726916,12.466591 C112.544238,12.2283799 113.254242,11.8903665 113.749366,11.3731144 C114.310706,10.7866875 114.620673,9.99508781 114.620673,8.95729413 C114.620673,7.5627382 114.056261,6.58945455 113.094296,5.98202069 C112.13233,5.37458683 110.785038,5.12376874 109.202034,5.12376874 L105.106256,5.12376874 L104.998137,5.12376874 Z M107.376742,7.06913983 L109.551829,7.06913983 C110.171324,7.06914187 110.854693,7.17947416 111.370762,7.4950871 C111.88683,7.81070003 112.242068,8.31763577 112.242068,9.16708905 C112.242071,10.2296919 111.831864,10.7734478 111.154525,11.080673 C110.477186,11.3878982 109.518743,11.4366887 108.470645,11.4366887 L107.376742,11.4366887 L107.376742,7.06913983 Z M107.376742,13.3947746 L108.680522,13.3947746 C109.610124,13.3947726 110.580302,13.4764914 111.300803,13.8270793 C112.021303,14.1776672 112.502825,14.7796449 112.502825,15.886884 C112.502827,16.8467062 112.096293,17.3899209 111.440721,17.7241789 C110.785148,18.0584369 109.870036,18.162841 108.903119,18.162841 L107.376742,18.162841 L107.376742,13.3947746 Z" id="path11777" fill-rule="nonzero"></path>
                <g id="use11781" transform="translate(87.744421, 8.747813)" fill-rule="nonzero">
                    <path d="M5.42111336,0.00604412813 C3.84291884,0.0060461625 2.52436106,0.589456087 1.60517069,1.58268475 C0.685980311,2.57591342 0.167832282,3.97684507 0.167832282,5.6069328 C0.167832282,7.39202159 0.616955505,8.89078634 1.57337116,9.94269452 C2.52978682,10.9946027 3.9879267,11.5892668 5.96170523,11.5892668 C7.79120858,11.5892729 8.70259815,11.1573649 9.46601259,10.883593 L9.53597153,10.8581633 L9.53597153,10.7818742 L9.53597153,8.77928632 L9.53597153,8.56313397 L9.36425411,8.70299725 C9.13772348,8.88949248 8.63122476,9.15885593 8.02231428,9.37688397 C7.41340379,9.59491201 6.69698956,9.76468671 6.04438399,9.76468671 C4.20993112,9.76469281 2.58834272,8.38933732 2.53371674,6.35075116 L10.2800804,6.35075116 L10.3818388,6.35075116 L10.3818388,6.24903241 C10.3818368,4.49126731 10.0825712,2.93518201 9.30701497,1.81155194 C8.53145872,0.687921872 7.27854533,0.00604412812 5.42111336,0.00604412813 Z M5.38295393,1.83698163 C6.22864213,1.83698163 6.8749692,2.16253859 7.32272479,2.68887616 C7.75037494,3.19157836 7.9761607,3.88687077 7.99687466,4.65331952 L2.54643655,4.65331952 C2.63484227,3.99907266 2.86616166,3.31323805 3.29690527,2.78423749 C3.75256749,2.22463585 4.4178888,1.83698163 5.38295393,1.83698163 L5.38295393,1.83698163 Z" id="path11789"></path>
                </g>
                <g id="use11785" transform="translate(79.053282, 8.747813)" stroke="#FFFFFF" stroke-width="1.03309369" fill-rule="nonzero">
                    <path d="M0.104043966,10.8890308 C1.02993005,11.3787741 2.09076822,11.4857781 3.13235165,11.4857781 C5.10944751,11.4857781 6.99965385,10.4205102 6.99965385,8.0990849 C6.99965385,4.62754806 2.20646556,5.2667141 2.20646556,3.05230301 C2.20646556,2.15766219 3.11309487,1.73155218 4.15459893,1.73155218 C4.6368771,1.73155218 5.84237511,2.00823938 6.30531713,2.28588071 L6.47886214,0.539028 C5.66875074,0.304767684 4.88760387,0.112917984 3.94246101,0.112917984 C1.75322926,0.112917984 0.0365679242,1.19939833 0.0365679242,3.45719857 C0.0365679242,6.50165703 4.82975621,6.33198202 4.82975621,8.31214092 C4.82975621,9.48345267 3.68210586,9.86714393 2.74659139,9.86714393 C2.15824426,9.86714393 1.0105939,9.61166916 0.210112926,9.10072977 L0.104043966,10.8890308 Z" id="path11787"></path>
                </g>
                <path d="M70.520906,19.6368433 C71.4467921,20.1265866 72.5076303,20.2335906 73.5492137,20.2335906 C75.5263096,20.2335906 77.4165159,19.1683227 77.4165159,16.8468974 C77.4165159,13.3753606 72.6233276,14.0145266 72.6233276,11.8001155 C72.6233276,10.9054747 73.5299569,10.4793647 74.571461,10.4793647 C75.0537392,10.4793647 76.2592372,10.7560519 76.7221792,11.0336932 L76.8957242,9.2868405 C76.0856128,9.05258018 75.3044659,8.86073048 74.3593231,8.86073048 C72.1700913,8.86073048 70.45343,9.94721083 70.45343,12.2050111 C70.45343,15.2494695 75.2466183,15.0797945 75.2466183,17.0599534 C75.2466183,18.2312652 74.0989679,18.6149564 73.1634534,18.6149564 C72.5751063,18.6149564 71.427456,18.3594817 70.626975,17.8485423 L70.520906,19.6368433 Z" id="path11787" stroke="#FFFFFF" stroke-width="1.03309369" fill-rule="nonzero"></path>
                <path d="M63.6269589,8.75385663 C62.0487644,8.75385866 60.7302066,9.33726859 59.8110162,10.3304973 C58.8918258,11.3237259 58.3736778,12.7246576 58.3736778,14.3547453 C58.3736778,16.1398341 58.822801,17.6385988 59.7792167,18.690507 C60.7356323,19.7424152 62.1937722,20.3370793 64.1675507,20.3370793 C65.9970541,20.3370854 66.9084437,19.9051774 67.6718581,19.6314055 L67.741817,19.6059758 L67.741817,19.5296867 L67.741817,17.5270988 L67.741817,17.3109465 L67.5700996,17.4508098 C67.343569,17.637305 66.8370703,17.9066684 66.2281598,18.1246965 C65.6192493,18.3427245 64.9028351,18.5124992 64.2502295,18.5124992 C62.4157766,18.5125053 60.7941882,17.1371498 60.7395622,15.0985637 L68.4859259,15.0985637 L68.5876843,15.0985637 L68.5876843,14.9968449 C68.5876823,13.2390798 68.2884167,11.6829945 67.5128605,10.5593644 C66.7373042,9.43573437 65.4843908,8.75385663 63.6269589,8.75385663 Z M63.5887994,10.5847941 C64.4344876,10.5847941 65.0808147,10.9103511 65.5285703,11.4366887 C65.9562204,11.9393909 66.1820062,12.6346833 66.2027202,13.401132 L60.7522821,13.401132 C60.8406878,12.7468852 61.0720072,12.0610506 61.5027508,11.53205 C61.958413,10.9724484 62.6237343,10.5847941 63.5887994,10.5847941 L63.5887994,10.5847941 Z" id="path11789" fill-rule="nonzero"></path>
                <polygon id="path11794" fill-rule="nonzero" points="39.27241 4.99693359 39.27241 20.0703809 41.6573741 20.0703809 41.6573741 7.57168945 46.4463822 20.0703809 48.8059067 20.0703809 53.5440356 7.53990234 53.5440356 20.0703809 55.9162799 20.0703809 55.9162799 4.99693359 52.1575764 4.99693359 47.6166046 17.1523242 43.0311135 4.99693359"></polygon>
                <rect id="rect11797" fill-rule="nonzero" x="0.0597139061" y="0.00604412812" width="28.6322898" height="2.71461914"></rect>
                <rect id="rect11799" fill-rule="nonzero" x="0.0469940972" y="5.32720644" width="2.60756082" height="14.7237891"></rect>
                <g id="use11801" transform="translate(5.215122, 5.289375)" fill-rule="nonzero">
                    <rect id="rect11799" x="0.0469940972" y="0.0378314409" width="2.60756082" height="14.7237891"></rect>
                </g>
                <g id="use11803" transform="translate(10.420703, 5.289375)" fill-rule="nonzero">
                    <rect id="rect11799" x="0.0469940972" y="0.0378314409" width="2.60756082" height="14.7237891"></rect>
                </g>
                <g id="use11805" transform="translate(15.626285, 5.289375)" fill-rule="nonzero">
                    <rect id="rect11799" x="0.0469940972" y="0.0378314409" width="2.60756082" height="14.7237891"></rect>
                </g>
                <g id="use11807" transform="translate(20.835047, 5.289375)" fill-rule="nonzero">
                    <rect id="rect11799" x="0.0469940972" y="0.0378314409" width="2.60756082" height="14.7237891"></rect>
                </g>
                <g id="use11809" transform="translate(26.043809, 5.289375)" fill-rule="nonzero">
                    <rect id="rect11799" x="0.0469940972" y="0.0378314409" width="2.60756082" height="14.7237891"></rect>
                </g>
            </g>
        </g>
    </g>
</svg>
