<?xml version="1.0" encoding="UTF-8"?>
<svg width="64px" height="70px" viewBox="0 0 64 70" version="1.1" xmlns="http://www.w3.org/2000/svg" xmlns:xlink="http://www.w3.org/1999/xlink">
    <!-- Generator: Sketch 47 (45396) - http://www.bohemiancoding.com/sketch -->
    <title>icon news</title>
    <desc>Created with Sketch.</desc>
    <defs>
        <polygon id="path-1" points="63.8998839 2.52905042e-14 0 0 0 69.92475 63.8998839 69.92475 63.8998839 0"></polygon>
    </defs>
    <g id="Startseite-Navigation" stroke="none" stroke-width="1" fill="none" fill-rule="evenodd">
        <g id="Startseite-Ausbaustufe-2.0" transform="translate(-597.000000, -1842.000000)">
            <g id="Medien" transform="translate(597.000000, 1757.000000)">
                <g id="icon-news" transform="translate(0.000000, 85.000000)">
                    <mask id="mask-2" fill="white">
                        <use xlink:href="#path-1"></use>
                    </mask>
                    <g id="Clip-2"></g>
                    <path d="M5.24791471,69.92475 C2.35351171,69.92475 -5.88981635e-05,67.5543898 -5.88981635e-05,64.6390085 L-5.88981635e-05,6.44587288 L0.117148447,6.44587288 L0.0654653087,6.12345763 C0.0226168948,5.84879661 -5.88981635e-05,5.56716525 -5.88981635e-05,5.2856822 C-5.88981635e-05,2.37030085 2.35351171,-5.93220339e-05 5.24791471,-5.93220339e-05 L63.8998839,-5.93220339e-05 L63.8998839,62.50475 L60.7709189,62.50475 L60.7709189,3.15364831 L5.24791471,3.15364831 C4.08025862,3.15364831 3.13111472,4.10962288 3.13111472,5.2856822 C3.13111472,6.46188983 4.08025862,7.4177161 5.24791471,7.4177161 L56.5352575,7.4177161 L56.5352575,69.92475 L5.24791471,69.92475 Z M3.13111472,64.6390085 C3.13111472,65.8152161 4.08025862,66.7710424 5.24791471,66.7710424 L53.4040839,66.7710424 L53.4040839,10.5714237 L5.24791471,10.5714237 C4.64833141,10.5714237 4.05993876,10.4716144 3.49863926,10.2694746 L3.13111472,10.1377797 L3.13111472,64.6390085 Z M8.45138583,58.3315932 C7.84031738,58.3315932 7.34675077,57.8321017 7.34675077,57.2190085 C7.34675077,56.6059153 7.84031738,56.1064237 8.45138583,56.1064237 L47.1236255,56.1064237 C47.7321908,56.1064237 48.2282605,56.6059153 48.2282605,57.2190085 C48.2282605,57.8321017 47.7321908,58.3315932 47.1236255,58.3315932 L8.45138583,58.3315932 Z M8.45138583,52.7688178 C7.84031738,52.7688178 7.34675077,52.2693263 7.34675077,51.6562331 C7.34675077,51.0410636 7.84031738,50.541572 8.45138583,50.541572 L47.1236255,50.541572 C47.7321908,50.541572 48.2282605,51.0410636 48.2282605,51.6562331 C48.2282605,52.2693263 47.7321908,52.7688178 47.1236255,52.7688178 L8.45138583,52.7688178 Z M30.5477681,47.2038178 C29.9390556,47.2038178 29.443133,46.7043263 29.443133,46.0912331 L29.443133,34.9612331 C29.443133,34.3481398 29.9390556,33.8486483 30.5477681,33.8486483 L47.1236255,33.8486483 C47.7321908,33.8486483 48.2282605,34.3481398 48.2282605,34.9612331 L48.2282605,46.0912331 C48.2282605,46.7043263 47.7321908,47.2038178 47.1236255,47.2038178 L30.5477681,47.2038178 Z M31.6546118,44.9787966 L46.0189904,44.9787966 L46.0189904,36.0760424 L31.6546118,36.0760424 L31.6546118,44.9787966 Z M8.45138583,47.2038178 C7.84031738,47.2038178 7.34675077,46.7043263 7.34675077,46.0912331 C7.34675077,45.4782881 7.84031738,44.9787966 8.45138583,44.9787966 L25.02474,44.9787966 C25.6334526,44.9787966 26.1293751,45.4782881 26.1293751,46.0912331 C26.1293751,46.7043263 25.6334526,47.2038178 25.02474,47.2038178 L8.45138583,47.2038178 Z M8.45138583,41.6386695 C7.84031738,41.6386695 7.34675077,41.1393263 7.34675077,40.5263814 C7.34675077,39.9132881 7.84031738,39.4137966 8.45138583,39.4137966 L25.02474,39.4137966 C25.6334526,39.4137966 26.1293751,39.9132881 26.1293751,40.5263814 C26.1293751,41.1393263 25.6334526,41.6386695 25.02474,41.6386695 L8.45138583,41.6386695 Z M8.45138583,36.0760424 C7.84031738,36.0760424 7.34675077,35.5765508 7.34675077,34.9612331 C7.34675077,34.3481398 7.84031738,33.8486483 8.45138583,33.8486483 L25.02474,33.8486483 C25.6334526,33.8486483 26.1293751,34.3481398 26.1293751,34.9612331 C26.1293751,35.5765508 25.6334526,36.0760424 25.02474,36.0760424 L8.45138583,36.0760424 Z M43.8210582,29.1191992 C42.7997641,29.1191992 41.7584445,28.8650042 41.1519407,28.5855975 L41.50371,27.1642415 C41.9972766,27.38225 42.9034248,27.7046653 43.9607941,27.7046653 C45.7710292,27.7046653 45.9129737,26.5989025 45.9129737,26.2606186 C45.9129737,25.375089 45.1646726,24.9369958 43.9563767,24.5146229 C42.1236131,23.8561483 41.2308642,22.9049195 41.2308642,21.610661 C41.2308642,19.8714873 42.7254051,18.7043263 44.9482218,18.7043263 C45.8498054,18.7043263 46.6434582,18.8429915 47.3084185,19.1176525 L46.9274946,20.4958517 C46.4427627,20.2937119 45.7596913,20.1029915 44.916564,20.1029915 C43.6654198,20.1029915 43.1042676,20.7568686 43.1042676,21.404072 C43.1042676,22.3008729 43.915737,22.6642203 45.2390315,23.1773559 C47.0243821,23.8425042 47.7863771,24.7166144 47.7863771,26.1040085 C47.7863771,27.9636059 46.2669517,29.1191992 43.8210582,29.1191992 L43.8210582,29.1191992 Z M35.0474405,28.946572 L34.1997487,24.5987119 C33.9810893,23.4474195 33.8210335,22.5007881 33.7014702,21.3450466 L33.676733,21.0953008 L33.1604906,21.0953008 L33.1222068,21.329178 C32.9282846,22.5755339 32.7570382,23.5541992 32.5158502,24.5896653 L31.559933,28.946572 L29.3868853,28.946572 L27.0153507,18.8769534 L28.9856415,18.8769534 L29.7429247,23.0161483 C29.972922,24.2716992 30.1871641,25.5999195 30.3675397,26.7464661 L30.4056763,26.9804915 L30.910728,26.9804915 L30.9445945,26.7420169 C31.1180496,25.5681822 31.3683667,24.2966144 31.6322305,22.9888602 L32.4775664,18.8769534 L34.5603527,18.8769534 L35.3628402,23.1273771 C35.5748736,24.2558305 35.7484759,25.3501737 35.9242869,26.6761695 L35.9557975,26.9168686 L36.4698312,26.9168686 L36.5036976,26.6761695 C36.6207577,25.7838178 36.7808135,24.8665508 36.9522071,23.8970805 C37.0040375,23.5949831 37.0582238,23.2885847 37.1122629,22.9820381 L37.9260883,18.8769534 L39.7700425,18.8769534 L37.1889778,28.946572 L35.0474405,28.946572 Z M19.2877644,28.946572 L19.2877644,18.8769534 L25.2300001,18.8769534 L25.2300001,20.2914873 L21.1136075,20.2914873 L21.1136075,23.0547076 L24.9954382,23.0547076 L24.9954382,24.4533729 L21.1136075,24.4533729 L21.1136075,27.5321864 L25.4485123,27.5321864 L25.4485123,28.946572 L19.2877644,28.946572 Z M14.5875437,28.946572 L12.4119928,24.9914237 C11.8845598,24.024178 11.1225648,22.5847288 10.5951317,21.2677797 L10.5251902,21.0953008 L9.98421053,21.0953008 L9.99996579,21.3882034 C10.0743247,22.7391144 10.1103998,24.2103008 10.1103998,26.0245169 L10.1103998,28.946572 L8.47170569,28.946572 L8.47170569,18.8769534 L10.8205645,18.8769534 L12.9305912,22.6301102 C13.5030813,23.6495593 14.1095851,24.9323983 14.6392269,26.2401525 L14.7091685,26.4127797 L15.2299755,26.4127797 L15.2006736,26.1062331 C15.0699197,24.8211695 15.0135247,23.458839 15.0135247,21.687928 L15.0135247,18.8769534 L16.6523661,18.8769534 L16.6523661,28.946572 L14.5875437,28.946572 Z" id="Fill-1" fill="#009CDE" mask="url(#mask-2)"></path>
                </g>
            </g>
        </g>
    </g>
</svg>