<?xml version="1.0" encoding="UTF-8"?>
<svg width="67px" height="76px" viewBox="0 0 67 76" version="1.1" xmlns="http://www.w3.org/2000/svg" xmlns:xlink="http://www.w3.org/1999/xlink">
    <!-- Generator: Sketch 47 (45396) - http://www.bohemiancoding.com/sketch -->
    <title>icon calendar</title>
    <desc>Created with Sketch.</desc>
    <defs>
        <polygon id="path-1" points="66.770997 3.6151463e-14 0.000110501826 9.03786576e-15 0.000110501826 75.900087 66.770997 75.900087 66.770997 0"></polygon>
    </defs>
    <g id="Startseite-Navigation" stroke="none" stroke-width="1" fill="none" fill-rule="evenodd">
        <g id="Startseite-Ausbaustufe-2.0" transform="translate(-891.000000, -1841.000000)">
            <g id="Veranstaltungen" transform="translate(891.000000, 1834.000000)">
                <g id="icon-calendar" transform="translate(0.000000, 7.000000)">
                    <mask id="mask-2" fill="white">
                        <use xlink:href="#path-1"></use>
                    </mask>
                    <g id="Clip-2"></g>
                    <path d="M25.8670095,61.9087732 C23.3388855,61.8989155 21.2797629,59.827518 21.2775529,57.2885138 L21.2775529,41.700087 C21.2870245,39.117518 23.3027357,37.0849155 25.8693774,37.0726728 L41.3320558,37.0726728 C41.8612017,37.0752167 42.3832439,37.1750661 42.890763,37.369677 L40.0848059,40.7849071 L25.8670095,40.7849071 C25.3811171,40.7849071 24.9533172,41.2134008 24.9533172,41.700087 L24.9533172,57.2885138 C24.9533172,57.7852167 25.3714877,58.2038527 25.8670095,58.2038527 L41.3320558,58.2038527 C41.8297876,58.2038527 42.250326,57.7852167 42.250326,57.2885138 L42.250326,54.4795347 L45.9262481,50.0055515 L45.9262481,57.2885138 C45.9213545,59.8251331 43.8574961,61.8989155 41.32953,61.9087732 L25.8670095,61.9087732 Z M37.5399488,55.3535347 C37.7914194,55.3290494 37.9847976,55.229359 38.1418681,55.0345891 L40.0147162,52.7512502 L53.2345232,36.6832921 C53.3941194,36.4910661 53.4569476,36.2840536 53.4327951,36.0309322 C53.4086425,35.772882 53.3071387,35.5806561 53.1161284,35.4199113 L50.8492624,33.5359699 C50.689824,33.4020954 50.5205984,33.3362711 50.23061,33.3362711 L50.1991959,33.3362711 C49.9453574,33.3605975 49.7543471,33.4628318 49.5950666,33.6576017 L36.9430811,49.0466477 L31.5995285,44.5845891 C31.4375644,44.4484887 31.2659708,44.3850494 30.9785082,44.3850494 L30.9470941,44.3850494 C30.6932557,44.4093757 30.5022454,44.5090661 30.3429649,44.703995 L28.4721689,46.9871749 C28.3127306,47.1794008 28.2499024,47.3887983 28.274055,47.6420787 C28.2982075,47.8975849 28.3997113,48.0899699 28.5930895,48.2505556 L36.8898824,55.153995 C37.0542144,55.2950243 37.2307016,55.3583046 37.4408129,55.3583046 L37.5399488,55.3535347 Z M66.52221,4.77092385 C66.3675074,4.61272301 66.1474509,4.52018745 65.9251844,4.52018745 L60.3374228,4.52018745 L60.3374228,3.65366025 C60.332687,1.70389456 58.9043719,0.0145640167 56.9879545,-6.35983264e-05 C55.0688535,0.0145640167 53.6381706,1.70389456 53.6358027,3.65366025 L53.6358027,4.52018745 L48.6378051,4.52018745 L48.6378051,3.65366025 C48.6330693,1.70389456 47.2047543,0.016948954 45.2858111,-6.35983264e-05 C43.3692359,0.016948954 41.9409208,1.70389456 41.9361851,3.65366025 L41.9361851,4.52018745 L36.9381874,4.52018745 L36.9381874,3.65366025 C36.9334517,1.70389456 35.5051366,0.016948954 33.5860356,-6.35983264e-05 C31.6696182,0.016948954 30.2438289,1.7062795 30.2389353,3.65366025 L30.2389353,4.52273138 L25.2387276,4.52273138 L25.2387276,3.65366025 C25.2336761,1.70389456 23.8053611,0.016948954 21.8889437,-6.35983264e-05 C19.9700006,0.016948954 18.5391598,1.70389456 18.5367919,3.65366025 L18.5367919,4.52018745 L13.5365842,4.52018745 L13.5365842,3.65366025 C13.5365842,1.70389456 12.1057434,0.016948954 10.1868003,-6.35983264e-05 C8.27022505,0.016948954 6.84191001,1.70389456 6.83701636,3.65366025 L6.83701636,4.52018745 L0.843397297,4.52018745 C0.621130766,4.52018745 0.403600028,4.61272301 0.246529575,4.77092385 C0.0919848775,4.92912469 0.000110501826,5.14822092 0.000110501826,5.37224603 L0.000110501826,19.7728151 L0.000110501826,75.0481874 C0.000110501826,75.2722126 0.0919848775,75.4913088 0.246529575,75.6495096 C0.403600028,75.8100954 0.621130766,75.900087 0.843397297,75.900087 L65.9251844,75.900087 C66.1499767,75.900087 66.3651395,75.8100954 66.52221,75.6495096 C66.6816483,75.4887649 66.770997,75.2744385 66.770997,75.0481874 L66.770997,19.7728151 L66.770997,5.37224603 C66.770997,5.14822092 66.6791226,4.92912469 66.52221,4.77092385 L66.52221,4.77092385 Z M56.9879545,1.70150962 C57.8239798,1.70389456 58.6434298,2.51699916 58.6457977,3.65366025 L58.6457977,6.00266444 L58.6457977,6.00520837 L58.6457977,6.00759331 L58.6457977,8.28838828 C58.6434298,9.42266444 57.8239798,10.238154 56.9879545,10.2405389 C56.1492457,10.238154 55.3301114,9.42266444 55.3275857,8.28838828 L55.3250599,3.65366025 C55.3301114,2.51699916 56.1492457,1.70389456 56.9879545,1.70150962 L56.9879545,1.70150962 Z M43.627968,3.65366025 C43.6301781,2.51699916 44.449628,1.70150962 45.2858111,1.70150962 C46.1243621,1.70150962 46.94618,2.51699916 46.9485479,3.65366025 L46.9485479,6.00266444 L46.9485479,6.00520837 L46.9485479,6.00997824 L46.9485479,8.28838828 C46.94618,9.42266444 46.1243621,10.238154 45.2858111,10.2405389 C44.4519959,10.238154 43.6301781,9.42266444 43.627968,8.28838828 L43.627968,3.65366025 Z M33.5860356,1.70150962 C34.4247445,1.70389456 35.2464045,2.51699916 35.2464045,3.65366025 L35.2464045,8.28838828 C35.2464045,9.42266444 34.4222187,10.238154 33.5860356,10.2405389 C32.7500104,10.238154 31.9305604,9.42266444 31.9281925,8.28838828 L31.9281925,6.00997824 L31.9281925,6.00520837 L31.9281925,6.00266444 L31.9281925,3.65366025 C31.9305604,2.51699916 32.7500104,1.70389456 33.5860356,1.70150962 L33.5860356,1.70150962 Z M21.8889437,1.70150962 C22.7226011,1.70389456 23.5444189,2.51699916 23.5491547,3.65366025 L23.5491547,8.28838828 C23.5444189,9.42266444 22.7226011,10.238154 21.8889437,10.2405389 C21.0526027,10.238154 20.228417,9.42266444 20.2262069,8.28838828 L20.2262069,6.00997824 L20.2262069,6.00759331 L20.2262069,6.00266444 L20.2262069,3.65366025 C20.228417,2.51699916 21.0502349,1.70389456 21.8889437,1.70150962 L21.8889437,1.70150962 Z M8.52895718,3.65366025 C8.53132508,2.51699916 9.35061719,1.70389456 10.1868003,1.70150962 C11.0253513,1.70389456 11.8470113,2.51699916 11.8495371,3.65366025 L11.8495371,8.28838828 C11.8470113,9.42266444 11.0253513,10.238154 10.1868003,10.2405389 C9.35298509,10.238154 8.53132508,9.42266444 8.52895718,8.28838828 L8.52895718,3.65366025 Z M2.92193665,7.32678159 L6.83701636,7.32678159 L6.83701636,8.28838828 C6.84191001,10.23561 8.27022505,11.9249406 10.1868003,11.9421121 C12.1057434,11.9249406 13.5365842,10.23561 13.5365842,8.28838828 L13.5365842,7.32439665 L18.5367919,7.32439665 L18.5367919,8.28838828 C18.5391598,10.238154 19.9700006,11.9249406 21.8889437,11.9421121 C23.8053611,11.9249406 25.2336761,10.238154 25.2387276,8.28838828 L25.2387276,7.32678159 L30.2389353,7.32678159 L30.2389353,8.28838828 C30.2438289,10.23561 31.6670925,11.9249406 33.5860356,11.9421121 C35.5051366,11.9249406 36.9334517,10.23561 36.9381874,8.28838828 L36.9381874,7.32439665 L41.9361851,7.32439665 L41.9361851,8.28838828 C41.9409208,10.238154 43.3692359,11.9249406 45.2858111,11.9421121 C47.2047543,11.9249406 48.6330693,10.238154 48.6378051,8.28838828 L48.6378051,7.32678159 L53.6381706,7.32678159 L53.6381706,8.28838828 C53.6430643,10.238154 55.0688535,11.9249406 56.9879545,11.9421121 C58.9043719,11.9249406 60.332687,10.23561 60.3374228,8.28838828 L60.3374228,7.32678159 L63.8707976,7.32678159 L63.8707976,18.9207565 L2.92193665,18.9207565 L2.92193665,7.32678159 Z M2.89778411,72.9864887 L63.8707976,72.9864887 L63.8707976,21.8370577 L2.89778411,21.8370577 L2.89778411,72.9864887 Z" id="Fill-1" fill="#009CDE" mask="url(#mask-2)"></path>
                </g>
            </g>
        </g>
    </g>
</svg>