<?xml version="1.0" encoding="UTF-8"?>
<svg width="88px" height="93px" viewBox="0 0 88 93" version="1.1" xmlns="http://www.w3.org/2000/svg" xmlns:xlink="http://www.w3.org/1999/xlink">
    <!-- Generator: Sketch 47 (45396) - http://www.bohemiancoding.com/sketch -->
    <title>Icon Aussteller</title>
    <desc>Created with Sketch.</desc>
    <defs>
        <polygon id="path-1" points="5.51636224e-05 92.3854525 87.7811369 92.3854525 87.7811369 0 5.51636224e-05 0"></polygon>
    </defs>
    <g id="Startseite-Navigation" stroke="none" stroke-width="1" fill="none" fill-rule="evenodd">
        <g id="Startseite-Ausbaustufe-2.0" transform="translate(-464.000000, -1680.000000)">
            <g id="Aussteller" transform="translate(298.000000, 1680.000000)">
                <g id="Icon-Aussteller" transform="translate(166.000000, 0.000000)">
                    <mask id="mask-2" fill="white">
                        <use xlink:href="#path-1"></use>
                    </mask>
                    <g id="Clip-2"></g>
                    <path d="M15.2016785,36.2617475 C11.291497,36.3949078 7.61208342,37.3222145 3.81737784,39.1453435 L3.81737784,14.5966259 C12.3274699,9.91805159 18.4335312,11.0579702 25.4628478,12.3679044 C31.214207,13.4424467 37.6551116,14.6447784 45.7992849,12.2771554 L45.7992849,21.1716693 C45.7992849,22.2350995 46.6522984,23.0970298 47.7079463,23.0970298 C48.7608359,23.0970298 49.6138494,22.2350995 49.6138494,21.1716693 L49.6138494,9.62320992 C49.6138494,8.99370813 49.3098979,8.40680282 48.8003699,8.04677002 C48.290658,7.68377399 47.6349464,7.59876625 47.0520508,7.81711947 C38.6544926,10.9133274 32.3007465,9.73099751 26.1580933,8.58255957 C21.5469661,7.7206292 16.8402219,6.84462348 11.4490811,7.78600553 L11.4490811,5.77563722 C11.4490811,2.59145828 8.88176613,-7.40808221e-05 5.72603917,-7.40808221e-05 C2.57031221,-7.40808221e-05 5.51636224e-05,2.59145828 5.51636224e-05,5.77563722 L5.51636224e-05,13.4737458 L5.51636224e-05,42.3435978 L5.51636224e-05,92.3855636 L3.81737784,92.3855636 L3.81737784,43.4807385 C5.10949375,42.769007 6.3762344,42.1650631 7.63470051,41.6857601 L7.63470051,92.3855636 L11.4490811,92.3855636 L11.4490811,40.5799187 C12.7299804,40.3191542 14.01658,40.1546948 15.331313,40.1093202 C16.3840188,40.072465 17.2088988,39.1821988 17.1750651,38.1189538 C17.1384733,37.0584868 16.3080769,36.2389677 15.2016785,36.2617475 L15.2016785,36.2617475 Z M5.72603917,3.85046185 C6.77874497,3.85046185 7.63470051,4.71220702 7.63470051,5.77563722 L7.63470051,8.75276026 C6.40160967,9.15538952 5.12916878,9.66580639 3.81737784,10.295123 L3.81737784,5.77563722 C3.81737784,4.71220702 4.6731495,3.85046185 5.72603917,3.85046185 L5.72603917,3.85046185 Z M34.2840626,51.659076 C30.3738812,51.7922363 26.6944676,52.719543 22.899762,54.542672 L22.899762,29.9937692 C31.409854,25.3153801 37.5159154,26.4523355 44.5452319,27.7652329 C50.293833,28.8397752 56.7402539,30.0421069 64.881853,27.6744838 L64.881853,36.569183 C64.881853,37.6322428 65.7346826,38.4943583 66.7905143,38.4943583 C67.8432201,38.4943583 68.6962336,37.6322428 68.6962336,36.569183 L68.6962336,25.0205384 C68.6962336,24.3910366 68.392282,23.8041313 67.882754,23.4440985 C67.373226,23.0838805 66.7171467,22.9960947 66.134435,23.214448 C57.7368767,26.3134339 51.3833146,25.125548 45.2404774,23.979888 C40.6293502,23.1207357 35.919664,22.2417668 30.5314653,23.1831488 L30.5314653,21.1729657 C30.5314653,17.9887868 27.9641503,15.3972544 24.8084233,15.3972544 C21.6526964,15.3972544 19.0822554,17.9887868 19.0822554,21.1729657 L19.0822554,28.8710743 L19.0822554,57.7409263 L19.0822554,92.3837116 L22.899762,92.3837116 L22.899762,58.8780669 C24.1918779,58.1663354 25.4586186,57.5622063 26.7170847,57.0830886 L26.7170847,92.3837116 L30.5314653,92.3837116 L30.5314653,55.9774323 C31.8123646,55.7164827 33.0989641,55.5520232 34.4135133,55.5066487 C35.4664029,55.4697935 36.291283,54.5795272 36.2574493,53.5162822 C36.2208574,52.4558153 35.3989194,51.5966629 34.2840626,51.659076 L34.2840626,51.659076 Z M24.8084233,19.2476051 C25.8611291,19.2476051 26.7170847,20.1097207 26.7170847,21.1729657 L26.7170847,24.1528668 C25.4839938,24.552718 24.2143111,25.0659129 22.899762,25.6924515 L22.899762,21.1729657 C22.899762,20.1097207 23.7555337,19.2476051 24.8084233,19.2476051 L24.8084233,19.2476051 Z M86.9647704,38.840501 C86.4552424,38.480283 85.8021051,38.3924972 85.2166352,38.6108504 C76.8218352,41.7098364 70.4653309,40.5247285 64.3226777,39.3762905 C59.7115505,38.5173234 55.0046225,37.6383544 49.6164237,38.5825145 L49.6164237,36.5693682 C49.6164237,33.3851892 47.0463506,30.7936569 43.8904397,30.7936569 C40.7345289,30.7936569 38.1644557,33.3851892 38.1644557,36.5693682 L38.1644557,44.2674768 L38.1644557,73.137514 L38.1644557,92.384082 L41.9817784,92.384082 L41.9817784,74.2742842 C43.3049698,73.5486626 44.5801689,72.9445334 45.7991011,72.4794911 L45.7991011,92.384082 L49.6164237,92.384082 L49.6164237,71.3651303 C54.5456611,70.3531863 58.8782121,71.1469623 63.6301904,72.0314873 C69.9670196,73.2140024 77.1484038,74.5550505 86.5284262,71.0958465 C87.2799386,70.8180434 87.781192,70.0979779 87.781192,69.2897561 L87.781192,40.4171261 C87.781192,39.7904023 87.4742984,39.2005338 86.9647704,38.840501 L86.9647704,38.840501 Z M43.8904397,34.6441928 C44.9433294,34.6441928 45.7991011,35.5089012 45.7991011,36.5693682 L45.7991011,39.5492692 C44.5660102,39.9518985 43.2965114,40.4623154 41.9817784,41.0888539 L41.9817784,36.5693682 C41.9817784,35.5089012 42.83755,34.6441928 43.8904397,34.6441928 L43.8904397,34.6441928 Z M83.9638694,67.9174089 C76.1799145,70.4607887 70.1554953,69.3351306 64.3226777,68.2463277 C57.6649801,67.0045479 50.8015222,65.7255425 41.9817784,69.9448158 L41.9817784,45.3931349 C50.4918704,40.7117825 56.5979318,41.8517012 63.6301904,43.1616353 C69.3758494,44.2363628 75.819696,45.4357314 83.9638694,43.0708863 L83.9638694,67.9174089 Z" id="Fill-1" fill="#009CDE" mask="url(#mask-2)"></path>
                </g>
            </g>
        </g>
    </g>
</svg>