<svg xmlns="http://www.w3.org/2000/svg" width="28" height="30"><path fill="#72FF2E" d="M21.9254808,16.1383929 L13.3100962,24.7098214 C13.0913462,24.9107143 12.7548077,24.9107143 12.5360577,24.7098214 L7.68990385,19.8883929 C7.48798077,19.6707589 7.48798077,19.3359375 7.68990385,19.1350446 L8.46394231,18.3649554 C8.66586538,18.1640625 9.00240385,18.1640625 9.22115385,18.3649554 L12.9230769,22.0479911 L20.3942308,14.6149554 C20.6129808,14.4140625 20.9495192,14.4140625 21.1514423,14.6149554 L21.9254808,15.3850446 C22.1274038,15.5859375 22.1274038,15.9207589 21.9254808,16.1383929 Z M2.15384615,27.8571429 L25.8461538,27.8571429 L25.8461538,10.7142857 L2.15384615,10.7142857 L2.15384615,27.8571429 Z M8.61538462,7.5 L8.61538462,2.67857143 C8.61538462,2.37723214 8.37980769,2.14285714 8.07692308,2.14285714 L7,2.14285714 C6.69711538,2.14285714 6.46153846,2.37723214 6.46153846,2.67857143 L6.46153846,7.5 C6.46153846,7.80133929 6.69711538,8.03571429 7,8.03571429 L8.07692308,8.03571429 C8.37980769,8.03571429 8.61538462,7.80133929 8.61538462,7.5 Z M21.5384615,7.5 L21.5384615,2.67857143 C21.5384615,2.37723214 21.3028846,2.14285714 21,2.14285714 L19.9230769,2.14285714 C19.6201923,2.14285714 19.3846154,2.37723214 19.3846154,2.67857143 L19.3846154,7.5 C19.3846154,7.80133929 19.6201923,8.03571429 19.9230769,8.03571429 L21,8.03571429 C21.3028846,8.03571429 21.5384615,7.80133929 21.5384615,7.5 Z M28,6.42857143 L28,27.8571429 C28,29.0290179 27.0240385,30 25.8461538,30 L2.15384615,30 C0.975961538,30 0,29.0290179 0,27.8571429 L0,6.42857143 C0,5.25669643 0.975961538,4.28571429 2.15384615,4.28571429 L4.30769231,4.28571429 L4.30769231,2.67857143 C4.30769231,1.20535714 5.51923077,0 7,0 L8.07692308,0 C9.55769231,0 10.7692308,1.20535714 10.7692308,2.67857143 L10.7692308,4.28571429 L17.2307692,4.28571429 L17.2307692,2.67857143 C17.2307692,1.20535714 18.4423077,0 19.9230769,0 L21,0 C22.4807692,0 23.6923077,1.20535714 23.6923077,2.67857143 L23.6923077,4.28571429 L25.8461538,4.28571429 C27.0240385,4.28571429 28,5.25669643 28,6.42857143 Z"/></svg>