<svg xmlns="http://www.w3.org/2000/svg" viewBox="0 0 56.7 61.1"><path d="M199.3,18.7c2.4,0,4.4,2,4.4,4.4v43.6c0,2.4-2,4.4-4.4,4.4h-48c-2.4,0-4.4-2-4.4-4.4V23.1 c0-2.4,2-4.4,4.4-4.4h4.4v-3.3c0-3,2.5-5.5,5.5-5.5h2.2c3,0,5.5,2.5,5.5,5.5v3.3h13.1v-3.3c0-3,2.5-5.5,5.5-5.5h2.2 c3,0,5.5,2.5,5.5,5.5v3.3H199.3z M186.2,15.5v9.8c0,0.6,0.5,1.1,1.1,1.1h2.2c0.6,0,1.1-0.5,1.1-1.1v-9.8c0-0.6-0.5-1.1-1.1-1.1 h-2.2C186.7,14.4,186.2,14.8,186.2,15.5z M160.1,15.5v9.8c0,0.6,0.5,1.1,1.1,1.1h2.2c0.6,0,1.1-0.5,1.1-1.1v-9.8 c0-0.6-0.5-1.1-1.1-1.1h-2.2C160.6,14.4,160.1,14.8,160.1,15.5z M199.3,66.7V31.8h-48v34.9H199.3z M177.5,47.1h7.6 c0.6,0,1.1,0.5,1.1,1.1v2.2c0,0.6-0.5,1.1-1.1,1.1h-7.6v7.6c0,0.6-0.5,1.1-1.1,1.1h-2.2c-0.6,0-1.1-0.5-1.1-1.1v-7.6h-7.6 c-0.6,0-1.1-0.5-1.1-1.1v-2.2c0-0.6,0.5-1.1,1.1-1.1h7.6v-7.6c0-0.6,0.5-1.1,1.1-1.1h2.2c0.6,0,1.1,0.5,1.1,1.1V47.1z" fill="#fff" transform="translate(-147 -10)"/></svg>