<svg xmlns="http://www.w3.org/2000/svg" transform="scale(-1 1)" width="42" height="21" viewBox="0 0 36 21"><defs><filter id="a" width="133.3%" height="177.8%" x="-16.7%" y="-36.1%" filterUnits="objectBoundingBox"><feOffset dx="-4" dy="4" in="SourceAlpha" result="shadowOffsetOuter1"/><feColorMatrix in="shadowOffsetOuter1" result="shadowMatrixOuter1" values="0 0 0 0 0.133688539 0 0 0 0 0.143312126 0 0 0 0 0.219106197 0 0 0 1 0"/><feMerge><feMergeNode in="shadowMatrixOuter1"/><feMergeNode in="SourceGraphic"/></feMerge></filter></defs><g fill="#72FF2E" filter="url(#a)"><path d="M39,8.9296875 C39,9.140625 38.9097222,9.3515625 38.7743056,9.4921875 L30.1076389,17.7890625 C29.8819444,18 29.5885417,18.046875 29.3177083,17.9296875 C29.0694444,17.8125 28.8888889,17.5546875 28.8888889,17.25 L28.8888889,12 L0.722222222,12 C0.315972222,12 0,11.671875 0,11.25 L0,6.75 C0,6.328125 0.315972222,6 0.722222222,6 L28.8888889,6 L28.8888889,0.75 C28.8888889,0.4453125 29.046875,0.1875 29.3177083,0.0703125 C29.5885417,-0.046875 29.8819444,-4.33680869e-18 30.1076389,0.1875 L38.7743056,8.390625 C38.9097222,8.53125 39,8.71875 39,8.9296875 L39,8.9296875 Z"/></g></svg>