<svg width="14" height="17" xmlns="http://www.w3.org/2000/svg"><path d="M101.669643,19.3928571 L101.669643,21.2767857 C101.669643,21.6755972 101.553573,21.875 101.321429,21.875 C101.184523,21.875 101.050596,21.8095245 100.919643,21.6785714 L100.919643,18.9910714 C101.050596,18.8601184 101.184523,18.7946429 101.321429,18.7946429 C101.553573,18.7946429 101.669643,18.9940456 101.669643,19.3928571 Z M104.6875,19.4017857 L104.6875,19.8125 L103.883929,19.8125 L103.883929,19.4017857 C103.883929,18.9970218 104.017856,18.7946429 104.285714,18.7946429 C104.553573,18.7946429 104.6875,18.9970218 104.6875,19.4017857 Z M96.0625,17.4553571 L97.0178571,17.4553571 L97.0178571,16.6160714 L94.2321429,16.6160714 L94.2321429,17.4553571 L95.1696429,17.4553571 L95.1696429,22.5357143 L96.0625,22.5357143 L96.0625,17.4553571 Z M98.6339286,22.5357143 L99.4285714,22.5357143 L99.4285714,18.125 L98.6339286,18.125 L98.6339286,21.5 C98.4553562,21.7500013 98.2857151,21.875 98.125,21.875 C98.0178566,21.875 97.9553572,21.8125006 97.9375,21.6875 C97.9315476,21.6696428 97.9285714,21.5654771 97.9285714,21.375 L97.9285714,18.125 L97.1339286,18.125 L97.1339286,21.6160714 C97.1339286,21.9077396 97.1577379,22.1249993 97.2053571,22.2678571 C97.2767861,22.4880963 97.4494034,22.5982143 97.7232143,22.5982143 C98.00893,22.5982143 98.3124984,22.4166685 98.6339286,22.0535714 L98.6339286,22.5357143 Z M102.464286,21.2142857 L102.464286,19.4553571 C102.464286,19.0208312 102.4375,18.7261912 102.383929,18.5714286 C102.282738,18.2380936 102.07143,18.0714286 101.75,18.0714286 C101.452379,18.0714286 101.175597,18.2321412 100.919643,18.5535714 L100.919643,16.6160714 L100.125,16.6160714 L100.125,22.5357143 L100.919643,22.5357143 L100.919643,22.1071429 C101.187501,22.4345254 101.464284,22.5982143 101.75,22.5982143 C102.07143,22.5982143 102.282738,22.4345254 102.383929,22.1071429 C102.4375,21.9464278 102.464286,21.6488117 102.464286,21.2142857 Z M105.482143,21.125 L105.482143,21.0089286 L104.669643,21.0089286 C104.669643,21.3125015 104.663691,21.4940473 104.651786,21.5535714 C104.610119,21.7678582 104.491072,21.875 104.294643,21.875 C104.020832,21.875 103.883929,21.6696449 103.883929,21.2589286 L103.883929,20.4821429 L105.482143,20.4821429 L105.482143,19.5625 C105.482143,19.0922596 105.401787,18.7470249 105.241071,18.5267857 C105.008927,18.2232128 104.693454,18.0714286 104.294643,18.0714286 C103.889879,18.0714286 103.57143,18.2232128 103.339286,18.5267857 C103.172618,18.7470249 103.089286,19.0922596 103.089286,19.5625 L103.089286,21.1071429 C103.089286,21.5773833 103.175594,21.9226179 103.348214,22.1428571 C103.580358,22.4464301 103.901784,22.5982143 104.3125,22.5982143 C104.741074,22.5982143 105.062499,22.4404778 105.276786,22.125 C105.383929,21.9642849 105.446428,21.8035722 105.464286,21.6428571 C105.476191,21.5892854 105.482143,21.4166681 105.482143,21.125 Z M100.053571,12.9732143 L100.053571,11.0982143 C100.053571,10.6874979 99.9255965,10.4821429 99.6696429,10.4821429 C99.4136892,10.4821429 99.2857143,10.6874979 99.2857143,11.0982143 L99.2857143,12.9732143 C99.2857143,13.389883 99.4136892,13.5982143 99.6696429,13.5982143 C99.9255965,13.5982143 100.053571,13.389883 100.053571,12.9732143 Z M106.473214,19.6785714 C106.473214,21.0714355 106.395834,22.1130918 106.241071,22.8035714 C106.157738,23.1547637 105.98512,23.4494036 105.723214,23.6875 C105.461308,23.9255964 105.15774,24.0624998 104.8125,24.0982143 C103.717256,24.2232149 102.065487,24.2857143 99.8571429,24.2857143 C97.6487985,24.2857143 95.9970293,24.2232149 94.9017857,24.0982143 C94.5565459,24.0624998 94.2514894,23.9255964 93.9866071,23.6875 C93.7217249,23.4494036 93.5505956,23.1547637 93.4732143,22.8035714 C93.3184516,22.1369014 93.2410714,21.0952452 93.2410714,19.6785714 C93.2410714,18.2857073 93.3184516,17.2440511 93.4732143,16.5535714 C93.556548,16.2023792 93.7291654,15.9077393 93.9910714,15.6696429 C94.2529775,15.4315464 94.5595221,15.2916669 94.9107143,15.25 C96.0000054,15.1309518 97.6487985,15.0714286 99.8571429,15.0714286 C102.065487,15.0714286 103.717256,15.1309518 104.8125,15.25 C105.15774,15.2916669 105.462796,15.4315464 105.727679,15.6696429 C105.992561,15.9077393 106.16369,16.2023792 106.241071,16.5535714 C106.395834,17.2202414 106.473214,18.2618977 106.473214,19.6785714 Z M97.5625,8.28571429 L98.4732143,8.28571429 L97.3928571,11.8482143 L97.3928571,14.2678571 L96.5,14.2678571 L96.5,11.8482143 C96.4166663,11.4077359 96.2351204,10.7767898 95.9553571,9.95535714 C95.7351179,9.34225884 95.5416675,8.78571679 95.375,8.28571429 L96.3214286,8.28571429 L96.9553571,10.6339286 L97.5625,8.28571429 Z M100.866071,11.2589286 L100.866071,12.8214286 C100.866071,13.3035738 100.782739,13.6547608 100.616071,13.875 C100.38988,14.1785729 100.074407,14.3303571 99.6696429,14.3303571 C99.2708313,14.3303571 98.9583345,14.1785729 98.7321429,13.875 C98.5654754,13.6488084 98.4821429,13.2976214 98.4821429,12.8214286 L98.4821429,11.2589286 C98.4821429,10.7827357 98.5654754,10.4345249 98.7321429,10.2142857 C98.9583345,9.91071277 99.2708313,9.75892857 99.6696429,9.75892857 C100.074407,9.75892857 100.38988,9.91071277 100.616071,10.2142857 C100.782739,10.4345249 100.866071,10.7827357 100.866071,11.2589286 Z M103.857143,9.8125 L103.857143,14.2678571 L103.044643,14.2678571 L103.044643,13.7767857 C102.729165,14.1458352 102.422621,14.3303571 102.125,14.3303571 C101.851189,14.3303571 101.675596,14.2202392 101.598214,14 C101.550595,13.8571421 101.526786,13.6339301 101.526786,13.3303571 L101.526786,9.8125 L102.339286,9.8125 L102.339286,13.0892857 C102.339286,13.2857153 102.342262,13.3898809 102.348214,13.4017857 C102.366072,13.5327388 102.428571,13.5982143 102.535714,13.5982143 C102.696429,13.5982143 102.866071,13.4702394 103.044643,13.2142857 L103.044643,9.8125 L103.857143,9.8125 Z" transform="translate(-93 -8)" fill="#FFF" fill-rule="evenodd"/></svg>