
<svg width="229px" height="20px" viewBox="0 0 229 20" version="1.1" xmlns="http://www.w3.org/2000/svg" xmlns:xlink="http://www.w3.org/1999/xlink">
    <!-- Generator: Sketch 44 (41411) - http://www.bohemiancoding.com/sketch -->
    <desc>Created with Sketch.</desc>
    <defs></defs>
    <g id="Symbols" stroke="none" stroke-width="1" fill="none" fill-rule="evenodd">
        <g id="Footer-Mobil" transform="translate(-22.000000, -109.000000)" fill="#FFFFFF">
            <g id="BDLI_Logo_Weiss_NEBEN_DE">
                <g transform="translate(22.000000, 109.000000)">
                    <g>
                        <path d="M84.6134572,12.2679698 L83.7834146,12.2679698 L83.7834146,18.903811 L87.258123,18.903811 L87.3546833,18.1708256 L84.6134572,18.1708256 L84.6134572,12.2679698 Z M91.3745503,17.4570142 C91.0560893,17.9972183 90.6216725,18.3734022 90.0521131,18.3734022 C89.4731688,18.3734022 89.2220705,18.1033001 89.2220705,17.3799017 L89.2220705,13.8304353 L88.4114234,13.8304353 L88.4114234,17.4668095 C88.4114234,18.46031 88.9325984,19.0196881 89.8302123,19.0196881 C90.5636946,19.0196881 91.0462872,18.7014428 91.4323196,18.0937131 L91.4902975,18.903811 L92.1851974,18.903811 L92.1851974,13.8304353 L91.3745503,13.8304353 L91.3745503,17.4570142 Z M95.716841,11.6892094 C94.7226668,11.6892094 94.1725029,12.2679698 94.1725029,13.1070369 L94.1725029,13.8304353 L93.274889,13.8304353 L93.274889,14.4573388 L94.1725029,14.4573388 L94.1725029,18.903811 L94.9833586,18.903811 L94.9833586,14.4573388 L96.1510492,14.4573388 L96.238016,13.8304353 L94.9833586,13.8304353 L94.9833586,13.0974499 C94.9833586,12.586215 95.195666,12.3450822 95.7650168,12.3450822 C96.035302,12.3450822 96.3345762,12.3934338 96.6626307,12.5380718 L96.9233225,11.9497245 C96.5274881,11.7761172 96.1898401,11.6892094 95.716841,11.6892094 Z M98.6034288,12.5766281 L97.7927817,12.6633275 L97.7927817,13.8304353 L96.9143547,13.8304353 L96.9143547,14.4573388 L97.7927817,14.4573388 L97.7927817,17.6018606 C97.7927817,18.5278355 98.2947697,19.0196881 99.1344058,19.0196881 C99.5590205,19.0196881 99.925866,18.903811 100.253921,18.6820605 L99.9450529,18.1226824 C99.6941631,18.2769074 99.4818558,18.3444329 99.2405595,18.3444329 C98.7869558,18.3444329 98.6034288,18.0937131 98.6034288,17.5633043 L98.6034288,14.4573388 L99.742339,14.4573388 L99.8293058,13.8304353 L98.6034288,13.8304353 L98.6034288,12.5766281 Z M100.309813,16.2321763 L103.002655,16.2321763 L103.002655,15.5377472 L100.309813,15.5377472 L100.309813,16.2321763 Z M110.135181,17.4570142 C109.81672,17.9972183 109.382512,18.3734022 108.812953,18.3734022 C108.2338,18.3734022 107.98291,18.1033001 107.98291,17.3799017 L107.98291,13.8304353 L107.172054,13.8304353 L107.172054,17.4668095 C107.172054,18.46031 107.693438,19.0196881 108.591052,19.0196881 C109.324534,19.0196881 109.807127,18.7014428 110.193159,18.0937131 L110.251137,18.903811 L110.946037,18.903811 L110.946037,13.8304353 L110.135181,13.8304353 L110.135181,17.4570142 Z M113.348364,13.8304353 L112.653255,13.8304353 L112.653255,18.903811 L113.464111,18.903811 L113.464111,15.286819 C113.811561,14.7274409 114.216989,14.3512571 114.815328,14.3512571 C115.336503,14.3512571 115.654965,14.6021853 115.654965,15.3833138 L115.654965,18.903811 L116.46582,18.903811 L116.46582,15.2676451 C116.46582,14.3031139 115.935052,13.7147665 115.008449,13.7147665 C114.323142,13.7147665 113.782572,14.0715681 113.415935,14.6021853 L113.348364,13.8304353 Z M119.866075,13.7147665 C118.621011,13.7147665 117.877727,14.8335227 117.877727,16.3864012 C117.877727,17.9780444 118.563033,19.0196881 119.78891,19.0196881 C120.435634,19.0196881 120.947007,18.6916474 121.265677,18.1902079 L121.352435,18.903811 L122.057137,18.903811 L122.057137,11.7857042 L121.246282,11.6892094 L121.246282,14.3512571 C120.92782,14.0040425 120.48381,13.7147665 119.866075,13.7147665 Z M121.246282,17.5728913 C120.908425,18.0743308 120.551382,18.3734022 119.953042,18.3734022 C119.190362,18.3734022 118.74656,17.7271163 118.74656,16.3768143 C118.74656,15.0265123 119.24834,14.3610525 120.0398,14.3610525 C120.570568,14.3610525 120.937414,14.6407415 121.246282,15.0554816 L121.246282,17.5728913 Z M126.680141,12.2679698 L126.680141,18.903811 L127.510183,18.903811 L127.510183,16.048982 L128.610511,16.048982 L130.232014,18.903811 L131.22598,18.903811 L129.430752,15.9041356 C130.37675,15.6244466 130.87853,15.0746555 130.87853,14.1295066 C130.87853,12.9044603 130.0293,12.2679698 128.388402,12.2679698 L126.680141,12.2679698 Z M127.510183,15.4026961 L127.510183,12.9238426 L128.378808,12.9238426 C129.508125,12.9238426 129.990718,13.2904395 129.990718,14.1295066 C129.990718,15.0458946 129.440554,15.4026961 128.484962,15.4026961 L127.510183,15.4026961 Z M134.005788,13.7147665 C133.446031,13.7147665 132.895867,13.8304353 132.287725,14.0619811 L132.490439,14.6599154 C133.011614,14.4767212 133.474811,14.3802264 133.861052,14.3802264 C134.594534,14.3802264 134.951578,14.6697108 134.951578,15.42187 L134.951578,15.8174362 L134.121535,15.8174362 C132.731735,15.8174362 131.92088,16.4057836 131.92088,17.4859835 C131.92088,18.3927845 132.519428,19.0196881 133.523195,19.0196881 C134.160118,19.0196881 134.700688,18.7785553 135.048138,18.2383511 C135.183281,18.7399991 135.501742,18.9521626 135.994136,19.0196881 L136.187048,18.4505147 C135.916763,18.3542283 135.762433,18.2093819 135.762433,17.7369116 L135.762433,15.3833138 C135.762433,14.3320832 135.21227,13.7147665 134.005788,13.7147665 Z M134.951578,16.3672273 L134.951578,17.5824783 C134.652512,18.1226824 134.256678,18.4023715 133.706514,18.4023715 C133.098581,18.4023715 132.779911,18.0647439 132.779911,17.4474272 C132.779911,16.7240288 133.281899,16.3672273 134.227689,16.3672273 L134.951578,16.3672273 Z M140.381683,17.4570142 C140.063222,17.9972183 139.628805,18.3734022 139.059454,18.3734022 C138.480302,18.3734022 138.229412,18.1033001 138.229412,17.3799017 L138.229412,13.8304353 L137.418556,13.8304353 L137.418556,17.4668095 C137.418556,18.46031 137.939731,19.0196881 138.837345,19.0196881 C139.571036,19.0196881 140.05342,18.7014428 140.439661,18.0937131 L140.49743,18.903811 L141.192539,18.903811 L141.192539,13.8304353 L140.381683,13.8304353 L140.381683,17.4570142 Z M143.594657,13.8304353 L142.899757,13.8304353 L142.899757,18.903811 L143.710613,18.903811 L143.710613,15.286819 C144.058063,14.7274409 144.395919,14.3512571 144.955677,14.3512571 C145.370698,14.3512571 145.698752,14.6021853 145.698752,15.3833138 L145.698752,18.903811 L146.509608,18.903811 L146.509608,15.286819 C146.866651,14.7274409 147.194915,14.3512571 147.764265,14.3512571 C148.179287,14.3512571 148.50755,14.6021853 148.50755,15.3833138 L148.50755,18.903811 L149.318197,18.903811 L149.318197,15.2676451 C149.318197,14.3127009 148.787428,13.7147665 147.957386,13.7147665 C147.272079,13.7147665 146.79908,14.0909504 146.422641,14.6503284 C146.239323,14.0619811 145.776126,13.7147665 145.148588,13.7147665 C144.492271,13.7147665 144.009678,14.0715681 143.662228,14.6021853 L143.594657,13.8304353 Z M152.786023,11.6892094 C151.791849,11.6892094 151.241685,12.2679698 151.241685,13.1070369 L151.241685,13.8304353 L150.344071,13.8304353 L150.344071,14.4573388 L151.241685,14.4573388 L151.241685,18.903811 L152.052541,18.903811 L152.052541,14.4573388 L153.22044,14.4573388 L153.307198,13.8304353 L152.052541,13.8304353 L152.052541,13.0974499 C152.052541,12.586215 152.264848,12.3450822 152.834407,12.3450822 C153.104484,12.3450822 153.403758,12.3934338 153.732021,12.5380718 L153.992505,11.9497245 C153.596879,11.7761172 153.259022,11.6892094 152.786023,11.6892094 Z M156.043419,13.7147665 C155.483661,13.7147665 154.933498,13.8304353 154.325356,14.0619811 L154.52807,14.6599154 C155.049245,14.4767212 155.512442,14.3802264 155.898683,14.3802264 C156.632165,14.3802264 156.989209,14.6697108 156.989209,15.42187 L156.989209,15.8174362 L156.159166,15.8174362 C154.769366,15.8174362 153.95851,16.4057836 153.95851,17.4859835 C153.95851,18.3927845 154.557059,19.0196881 155.560826,19.0196881 C156.197748,19.0196881 156.738319,18.7785553 157.085769,18.2383511 C157.220911,18.7399991 157.539372,18.9521626 158.031767,19.0196881 L158.224679,18.4505147 C157.954394,18.3542283 157.800064,18.2093819 157.800064,17.7369116 L157.800064,15.3833138 C157.800064,14.3320832 157.2499,13.7147665 156.043419,13.7147665 Z M156.989209,16.3672273 L156.989209,17.5824783 C156.690143,18.1226824 156.294309,18.4023715 155.744145,18.4023715 C155.136211,18.4023715 154.817542,18.0647439 154.817542,17.4474272 C154.817542,16.7240288 155.31953,16.3672273 156.26532,16.3672273 L156.989209,16.3672273 Z M160.332528,11.6987963 L159.521881,11.7952911 L159.521881,18.903811 L160.332528,18.903811 L160.332528,15.277232 C160.679978,14.7274409 161.095,14.3512571 161.674152,14.3512571 C162.195327,14.3512571 162.52359,14.6021853 162.52359,15.3833138 L162.52359,18.903811 L163.334238,18.903811 L163.334238,15.2676451 C163.334238,14.3127009 162.793876,13.7147665 161.876866,13.7147665 C161.220549,13.7147665 160.699374,14.0523941 160.332528,14.563629 L160.332528,11.6987963 Z M165.707575,13.8304353 L165.012675,13.8304353 L165.012675,18.903811 L165.823531,18.903811 L165.823531,15.9620742 C166.045432,14.9685737 166.412277,14.5056905 167.068595,14.5056905 C167.251914,14.5056905 167.358067,14.5248644 167.512605,14.563629 L167.657341,13.7727051 C167.512605,13.7339405 167.329078,13.7147665 167.155353,13.7147665 C166.528025,13.7147665 166.055025,14.1101243 165.78474,14.8914612 L165.707575,13.8304353 Z M170.018166,12.5766281 L169.20731,12.6633275 L169.20731,13.8304353 L168.329092,13.8304353 L168.329092,14.4573388 L169.20731,14.4573388 L169.20731,17.6018606 C169.20731,18.5278355 169.709298,19.0196881 170.548934,19.0196881 C170.973549,19.0196881 171.340395,18.903811 171.668449,18.6820605 L171.35979,18.1226824 C171.108692,18.2769074 170.896384,18.3444329 170.655088,18.3444329 C170.201484,18.3444329 170.018166,18.0937131 170.018166,17.5633043 L170.018166,14.4573388 L171.157076,14.4573388 L171.243834,13.8304353 L170.018166,13.8304353 L170.018166,12.5766281 Z M172.691612,18.903811 L173.502259,18.903811 L173.502259,13.8304353 L172.691612,13.8304353 L172.691612,18.903811 Z M173.087238,11.4384896 C172.749382,11.4384896 172.517679,11.6796224 172.517679,11.9978677 C172.517679,12.3161129 172.749382,12.5572457 173.087238,12.5572457 C173.434688,12.5572457 173.666391,12.3161129 173.666391,11.9978677 C173.666391,11.6796224 173.434688,11.4384896 173.087238,11.4384896 Z M175.894784,13.8304353 L175.199884,13.8304353 L175.199884,18.903811 L176.01074,18.903811 L176.01074,15.286819 C176.35819,14.7274409 176.763618,14.3512571 177.361957,14.3512571 C177.883132,14.3512571 178.201593,14.6021853 178.201593,15.3833138 L178.201593,18.903811 L179.012449,18.903811 L179.012449,15.2676451 C179.012449,14.3031139 178.481681,13.7147665 177.555078,13.7147665 C176.869771,13.7147665 176.329201,14.0715681 175.962355,14.6021853 L175.894784,13.8304353 Z M182.412704,13.7147665 C181.16764,13.7147665 180.424356,14.8335227 180.424356,16.3864012 C180.424356,17.9780444 181.109662,19.0196881 182.335539,19.0196881 C182.982055,19.0196881 183.493636,18.6916474 183.812097,18.1902079 L183.899064,18.903811 L184.603558,18.903811 L184.603558,11.7857042 L183.79291,11.6892094 L183.79291,14.3512571 C183.474449,14.0040425 183.030439,13.7147665 182.412704,13.7147665 Z M183.79291,17.5728913 C183.455054,18.0743308 183.098011,18.3734022 182.499462,18.3734022 C181.736991,18.3734022 181.292981,17.7271163 181.292981,16.3768143 C181.292981,15.0265123 181.794969,14.3610525 182.586429,14.3610525 C183.117197,14.3610525 183.484043,14.6407415 183.79291,15.0554816 L183.79291,17.5728913 Z M189.249711,17.4570142 C188.930624,17.9972183 188.496833,18.3734022 187.927482,18.3734022 C187.347703,18.3734022 187.097439,18.1033001 187.097439,17.3799017 L187.097439,13.8304353 L186.286792,13.8304353 L186.286792,17.4668095 C186.286792,18.46031 186.807967,19.0196881 187.706415,19.0196881 C188.438438,19.0196881 188.922282,18.7014428 189.308106,18.0937131 L189.3665,18.903811 L190.060983,18.903811 L190.060983,13.8304353 L189.249711,13.8304353 L189.249711,17.4570142 Z M193.237252,13.7147665 C192.204912,13.7147665 191.443692,14.2935269 191.443692,15.0844509 C191.443692,15.8078492 191.877484,16.2611456 192.968218,16.5504216 C193.97136,16.8205236 194.232052,17.0135132 194.232052,17.5728913 C194.232052,18.0455699 193.779491,18.3638152 193.103778,18.3638152 C192.534427,18.3638152 192.069353,18.1708256 191.675187,17.8429934 L191.22054,18.3542283 C191.664759,18.7399991 192.263307,19.0196881 193.122547,19.0196881 C194.144459,19.0196881 195.080864,18.5278355 195.080864,17.4957788 C195.080864,16.6083601 194.482316,16.203207 193.412437,15.923518 C192.571966,15.7017675 192.282077,15.5087779 192.282077,15.0746555 C192.282077,14.6407415 192.667901,14.3610525 193.266449,14.3610525 C193.750293,14.3610525 194.136117,14.5056905 194.580336,14.8335227 L194.936962,14.2935269 C194.453118,13.9269301 193.93382,13.7147665 193.237252,13.7147665 Z M197.493827,12.5766281 L196.682554,12.6633275 L196.682554,13.8304353 L195.804544,13.8304353 L195.804544,14.4573388 L196.682554,14.4573388 L196.682554,17.6018606 C196.682554,18.5278355 197.185168,19.0196881 198.025638,19.0196881 C198.449002,19.0196881 198.816056,18.903811 199.14557,18.6820605 L198.836911,18.1226824 C198.584561,18.2769074 198.371837,18.3444329 198.132001,18.3444329 C197.677354,18.3444329 197.493827,18.0937131 197.493827,17.5633043 L197.493827,14.4573388 L198.632529,14.4573388 L198.720121,13.8304353 L197.493827,13.8304353 L197.493827,12.5766281 Z M200.861965,13.8304353 L200.167482,13.8304353 L200.167482,18.903811 L200.978755,18.903811 L200.978755,15.9620742 C201.199821,14.9685737 201.566875,14.5056905 202.223819,14.5056905 C202.407346,14.5056905 202.513708,14.5248644 202.668037,14.563629 L202.811939,13.7727051 C202.668037,13.7339405 202.48451,13.7147665 202.311411,13.7147665 C201.683665,13.7147665 201.210249,14.1101243 200.939129,14.8914612 L200.861965,13.8304353 Z M203.892246,18.903811 L204.701433,18.903811 L204.701433,13.8304353 L203.892246,13.8304353 L203.892246,18.903811 Z M204.286412,11.4384896 C203.948555,11.4384896 203.717061,11.6796224 203.717061,11.9978677 C203.717061,12.3161129 203.948555,12.5572457 204.286412,12.5572457 C204.634696,12.5572457 204.86619,12.3161129 204.86619,11.9978677 C204.86619,11.6796224 204.634696,11.4384896 204.286412,11.4384896 Z M208.165505,13.7147665 C206.872474,13.7147665 206.082057,14.8239357 206.082057,16.4153705 C206.082057,18.0261876 206.901672,19.0196881 208.301065,19.0196881 C208.995548,19.0196881 209.556557,18.7785553 210.048743,18.3829891 L209.692116,17.9007235 C209.247898,18.2093819 208.870416,18.3542283 208.35946,18.3542283 C207.596154,18.3542283 207.018462,17.8719627 206.941297,16.6469164 L210.211414,16.6469164 C210.221842,16.5408346 210.23227,16.3768143 210.23227,16.203207 C210.23227,14.6697108 209.527359,13.7147665 208.165505,13.7147665 Z M206.941297,16.048982 C207.008034,14.862492 207.48145,14.3610525 208.186361,14.3610525 C209.024745,14.3610525 209.431425,14.9493998 209.431425,15.9716612 L209.431425,16.048982 L206.941297,16.048982 Z M216.128075,13.7147665 C214.835043,13.7147665 214.044626,14.8239357 214.044626,16.4153705 C214.044626,18.0261876 214.864241,19.0196881 216.263634,19.0196881 C216.958117,19.0196881 217.519126,18.7785553 218.011312,18.3829891 L217.654686,17.9007235 C217.210467,18.2093819 216.832985,18.3542283 216.322029,18.3542283 C215.558724,18.3542283 214.981031,17.8719627 214.903866,16.6469164 L218.173984,16.6469164 C218.184411,16.5408346 218.194839,16.3768143 218.194839,16.203207 C218.194839,14.6697108 217.489928,13.7147665 216.128075,13.7147665 Z M214.903866,16.048982 C214.970603,14.862492 215.444019,14.3610525 216.14893,14.3610525 C216.987315,14.3610525 217.393994,14.9493998 217.393994,15.9716612 L217.393994,16.048982 L214.903866,16.048982 Z M219.846582,17.7754679 C219.498298,17.7754679 219.227178,18.0551569 219.227178,18.3927845 C219.227178,18.7399991 219.498298,19.0196881 219.846582,19.0196881 C220.211551,19.0196881 220.472242,18.7399991 220.472242,18.3927845 C220.472242,18.0551569 220.211551,17.7754679 219.846582,17.7754679 Z M227.538032,12.2679698 L226.68922,12.2679698 L224.970739,18.0068053 L223.262687,12.2679698 L222.35548,12.2679698 L224.507751,18.903811 L225.414958,18.903811 L227.538032,12.2679698 Z M228.232515,17.7754679 C227.886316,17.7754679 227.615197,18.0551569 227.615197,18.3927845 C227.615197,18.7399991 227.886316,19.0196881 228.232515,19.0196881 C228.599569,19.0196881 228.860261,18.7399991 228.860261,18.3927845 C228.860261,18.0551569 228.599569,17.7754679 228.232515,17.7754679 L228.232515,17.7754679 Z" id="Fill-1"></path>
                        <path d="M83.7834146,0.693595463 L83.7834146,7.32964509 L85.6076313,7.32964509 C87.1325739,7.32964509 88.1847258,6.82799716 88.1847258,5.4487259 C88.1847258,4.32017439 87.431848,3.94399055 86.6499813,3.81873488 C87.3062989,3.68368384 87.8854517,3.19162287 87.8854517,2.36214272 C87.8854517,1.2144173 86.939662,0.693595463 85.3277526,0.693595463 L83.7834146,0.693595463 Z M85.4145108,1.35905529 C86.4280804,1.35905529 87.0264202,1.59060113 87.0264202,2.42008129 C87.0264202,3.14347968 86.4570694,3.52925047 85.6945981,3.52925047 L84.6134572,3.52925047 L84.6134572,1.35905529 L85.4145108,1.35905529 Z M84.6134572,4.17553639 L85.7813563,4.17553639 C86.6018054,4.17553639 87.2967054,4.50357703 87.2967054,5.4487259 C87.2967054,6.42284405 86.6018054,6.65438989 85.6076313,6.65438989 L84.6134572,6.65438989 L84.6134572,4.17553639 Z M92.4796749,5.8828483 C92.1612138,6.42284405 91.726797,6.79902788 91.1572377,6.79902788 C90.5782934,6.79902788 90.3271951,6.5289258 90.3271951,5.80552741 L90.3271951,2.25606096 L89.516548,2.25606096 L89.516548,5.89243526 C89.516548,6.88593573 90.0377229,7.4453138 90.9353368,7.4453138 C91.6688192,7.4453138 92.1514118,7.12706853 92.5374442,6.51933885 L92.595422,7.32964509 L93.290322,7.32964509 L93.290322,2.25606096 L92.4796749,2.25606096 L92.4796749,5.8828483 Z M95.6926488,2.25606096 L94.9977488,2.25606096 L94.9977488,7.32964509 L95.8083959,7.32964509 L95.8083959,3.71265312 C96.1560545,3.15306664 96.5612737,2.7768828 97.159822,2.7768828 C97.680997,2.7768828 97.9994581,3.02781096 97.9994581,3.80893951 L97.9994581,7.32964509 L98.8101052,7.32964509 L98.8101052,3.69327079 C98.8101052,2.7287396 98.2793368,2.14039225 97.352734,2.14039225 C96.6674274,2.14039225 96.1270655,2.49719376 95.7602201,3.02781096 L95.6926488,2.25606096 Z M102.21036,2.14039225 C100.965296,2.14039225 100.22222,3.25914839 100.22222,4.81202694 C100.22222,6.40367013 100.907527,7.4453138 102.133195,7.4453138 C102.779919,7.4453138 103.291501,7.11727316 103.609962,6.61583365 L103.696929,7.32964509 L104.401422,7.32964509 L104.401422,0.211329868 L103.590775,0.114835066 L103.590775,2.7768828 C103.272106,2.42966824 102.828095,2.14039225 102.21036,2.14039225 Z M103.590775,5.99851701 C103.252919,6.49995652 102.895667,6.79902788 102.297327,6.79902788 C101.534856,6.79902788 101.090845,6.15274197 101.090845,4.80243998 C101.090845,3.452138 101.592833,2.78667817 102.384294,2.78667817 C102.915062,2.78667817 103.281908,3.0663672 103.590775,3.48110728 L103.590775,5.99851701 Z M107.903034,2.14039225 C106.609586,2.14039225 105.818126,3.24956144 105.818126,4.84099622 C105.818126,6.45181333 106.638575,7.4453138 108.038177,7.4453138 C108.733077,7.4453138 109.292834,7.204181 109.78502,6.80861484 L109.427977,6.32634924 C108.983966,6.63500756 108.607528,6.77985397 108.095946,6.77985397 C107.333475,6.77985397 106.754322,6.29758837 106.677157,5.07254206 L109.949152,5.07254206 C109.958745,4.9664603 109.968547,4.80243998 109.968547,4.6288327 C109.968547,3.09533648 109.263845,2.14039225 107.903034,2.14039225 Z M106.677157,4.47460775 C106.744728,3.28811767 107.217728,2.78667817 107.922221,2.78667817 C108.762066,2.78667817 109.167285,3.37502552 109.167285,4.39728686 L109.167285,4.47460775 L106.677157,4.47460775 Z M112.867857,2.14039225 C111.8351,2.14039225 111.072629,2.71915265 111.072629,3.51007656 C111.072629,4.23347495 111.506837,4.68677127 112.597571,4.97604726 C113.601339,5.24614934 113.862031,5.43913894 113.862031,5.99851701 C113.862031,6.47119565 113.408427,6.78944093 112.732714,6.78944093 C112.163363,6.78944093 111.699958,6.59645132 111.304332,6.26861909 L110.85052,6.77985397 C111.29453,7.16562476 111.893078,7.4453138 112.75211,7.4453138 C113.775064,7.4453138 114.71126,6.95346125 114.71126,5.92140454 C114.71126,5.03398582 114.112921,4.6288327 113.041582,4.34914367 C112.201946,4.12739319 111.912265,3.93440359 111.912265,3.50028119 C111.912265,3.0663672 112.298297,2.78667817 112.896846,2.78667817 C113.379438,2.78667817 113.765471,2.93131616 114.209481,3.25914839 L114.566524,2.71915265 C114.083932,2.35255577 113.562757,2.14039225 112.867857,2.14039225 Z M119.872957,2.25606096 L119.013926,2.25606096 L117.653115,6.60624669 L116.272908,2.25606096 L115.384888,2.25606096 L117.151127,7.32964509 L118.135707,7.32964509 L119.872957,2.25606096 Z M122.556206,2.14039225 C121.262966,2.14039225 120.471506,3.24956144 120.471506,4.84099622 C120.471506,6.45181333 121.291746,7.4453138 122.691348,7.4453138 C123.386248,7.4453138 123.946006,7.204181 124.4384,6.80861484 L124.081148,6.32634924 C123.637346,6.63500756 123.260908,6.77985397 122.749326,6.77985397 C121.986855,6.77985397 121.407702,6.29758837 121.330537,5.07254206 L124.602532,5.07254206 C124.612125,4.9664603 124.621719,4.80243998 124.621719,4.6288327 C124.621719,3.09533648 123.917225,2.14039225 122.556206,2.14039225 Z M121.330537,4.47460775 C121.398108,3.28811767 121.870899,2.78667817 122.575601,2.78667817 C123.415237,2.78667817 123.820665,3.37502552 123.820665,4.39728686 L123.820665,4.47460775 L121.330537,4.47460775 Z M126.713301,2.25606096 L126.018401,2.25606096 L126.018401,7.32964509 L126.829048,7.32964509 L126.829048,4.38769991 C127.051157,3.39419943 127.417794,2.93131616 128.074112,2.93131616 C128.257639,2.93131616 128.363792,2.95049008 128.518122,2.98925473 L128.662858,2.19833081 C128.518122,2.15977457 128.334804,2.14039225 128.161079,2.14039225 C127.53375,2.14039225 127.060751,2.53575 126.790466,3.31708696 L126.713301,2.25606096 Z M130.553603,0.114835066 L129.742956,0.211329868 L129.742956,7.32964509 L130.44745,7.32964509 L130.534416,6.75088469 C130.872273,7.17521172 131.33547,7.4453138 131.905029,7.4453138 C133.140291,7.4453138 133.883576,6.38428781 133.883576,4.78326607 C133.883576,3.09533648 133.159687,2.14039225 132.011183,2.14039225 C131.383646,2.14039225 130.901053,2.42966824 130.553603,2.91193384 L130.553603,0.114835066 Z M130.553603,3.59677599 C130.823889,3.18203592 131.209921,2.78667817 131.789074,2.78667817 C132.532358,2.78667817 133.014951,3.32667391 133.014951,4.78326607 C133.014951,6.19150662 132.493776,6.79902788 131.721502,6.79902788 C131.23891,6.79902788 130.823889,6.49995652 130.553603,6.08521645 L130.553603,3.59677599 Z M137.036695,2.14039225 C136.476937,2.14039225 135.926774,2.25606096 135.318632,2.48760681 L135.521346,3.08554112 C136.042521,2.90234688 136.505926,2.80585208 136.891959,2.80585208 C137.625441,2.80585208 137.982485,3.09533648 137.982485,3.84770416 L137.982485,4.24306191 L137.152442,4.24306191 C135.762642,4.24306191 134.951995,4.83140926 134.951995,5.91160917 C134.951995,6.81841021 135.550335,7.4453138 136.554102,7.4453138 C137.191233,7.4453138 137.731595,7.204181 138.079045,6.66397684 C138.214187,7.16562476 138.532648,7.37778828 139.025043,7.4453138 L139.217955,6.87614036 C138.94767,6.77985397 138.79334,6.63500756 138.79334,6.16253733 L138.79334,3.80893951 C138.79334,2.75770888 138.243176,2.14039225 137.036695,2.14039225 Z M137.982485,4.79285302 L137.982485,6.00810397 C137.683419,6.54830813 137.287585,6.82799716 136.737421,6.82799716 C136.129487,6.82799716 135.810818,6.49036957 135.810818,5.87305293 C135.810818,5.14965454 136.312806,4.79285302 137.258596,4.79285302 L137.982485,4.79285302 Z M141.210057,2.25606096 L140.515157,2.25606096 L140.515157,7.32964509 L141.325804,7.32964509 L141.325804,3.71265312 C141.673463,3.15306664 142.078682,2.7768828 142.67723,2.7768828 C143.198405,2.7768828 143.516866,3.02781096 143.516866,3.80893951 L143.516866,7.32964509 L144.327722,7.32964509 L144.327722,3.69327079 C144.327722,2.7287396 143.796745,2.14039225 142.870142,2.14039225 C142.184836,2.14039225 141.644474,2.49719376 141.277628,3.02781096 L141.210057,2.25606096 Z M147.727977,2.14039225 C146.482705,2.14039225 145.739629,3.25914839 145.739629,4.81202694 C145.739629,6.40367013 146.424935,7.4453138 147.650604,7.4453138 C148.297328,7.4453138 148.808909,7.11727316 149.12737,6.61583365 L149.214337,7.32964509 L149.918831,7.32964509 L149.918831,0.211329868 L149.108184,0.114835066 L149.108184,2.7768828 C148.789514,2.42966824 148.345504,2.14039225 147.727977,2.14039225 Z M149.108184,5.99851701 C148.770327,6.49995652 148.413075,6.79902788 147.814735,6.79902788 C147.052264,6.79902788 146.608254,6.15274197 146.608254,4.80243998 C146.608254,3.452138 147.110242,2.78667817 147.901702,2.78667817 C148.43247,2.78667817 148.799316,3.0663672 149.108184,3.48110728 L149.108184,5.99851701 Z M156.153744,2.14039225 C154.90868,2.14039225 154.165395,3.25914839 154.165395,4.81202694 C154.165395,6.40367013 154.850702,7.4453138 156.076579,7.4453138 C156.723094,7.4453138 157.234676,7.11727316 157.553137,6.61583365 L157.640104,7.32964509 L158.344597,7.32964509 L158.344597,0.211329868 L157.53395,0.114835066 L157.53395,2.7768828 C157.215489,2.42966824 156.771479,2.14039225 156.153744,2.14039225 Z M157.53395,5.99851701 C157.196094,6.49995652 156.83905,6.79902788 156.240502,6.79902788 C155.47803,6.79902788 155.03402,6.15274197 155.03402,4.80243998 C155.03402,3.452138 155.536008,2.78667817 156.327469,2.78667817 C156.858237,2.78667817 157.225082,3.0663672 157.53395,3.48110728 L157.53395,5.99851701 Z M161.846209,2.14039225 C160.552761,2.14039225 159.761301,3.24956144 159.761301,4.84099622 C159.761301,6.45181333 160.58175,7.4453138 161.981352,7.4453138 C162.676252,7.4453138 163.236009,7.204181 163.728404,6.80861484 L163.371152,6.32634924 C162.927141,6.63500756 162.550702,6.77985397 162.039329,6.77985397 C161.27665,6.77985397 160.697705,6.29758837 160.620332,5.07254206 L163.892327,5.07254206 C163.902129,4.9664603 163.911722,4.80243998 163.911722,4.6288327 C163.911722,3.09533648 163.20702,2.14039225 161.846209,2.14039225 Z M160.620332,4.47460775 C160.687903,3.28811767 161.160902,2.78667817 161.865604,2.78667817 C162.705241,2.78667817 163.110668,3.37502552 163.110668,4.39728686 L163.110668,4.47460775 L160.620332,4.47460775 Z M166.003304,2.25606096 L165.308196,2.25606096 L165.308196,7.32964509 L166.119051,7.32964509 L166.119051,4.38769991 C166.340952,3.39419943 166.707798,2.93131616 167.364115,2.93131616 C167.547434,2.93131616 167.653587,2.95049008 167.808125,2.98925473 L167.952862,2.19833081 C167.808125,2.15977457 167.624807,2.14039225 167.451082,2.14039225 C166.823545,2.14039225 166.350754,2.53575 166.080469,3.31708696 L166.003304,2.25606096 Z M171.736229,0.693595463 L171.736229,7.32964509 L173.280567,7.32964509 C174.699356,7.32964509 176.378837,6.69294612 176.378837,3.97295983 C176.378837,1.22400425 174.766927,0.693595463 173.106842,0.693595463 L171.736229,0.693595463 Z M173.280567,1.36885066 C174.361499,1.36885066 175.481223,1.68709594 175.481223,3.97295983 C175.481223,6.20109357 174.409884,6.66397684 173.348138,6.66397684 L172.566272,6.66397684 L172.566272,1.36885066 L173.280567,1.36885066 Z M179.590768,2.14039225 C178.297528,2.14039225 177.506068,3.24956144 177.506068,4.84099622 C177.506068,6.45181333 178.326517,7.4453138 179.72591,7.4453138 C180.42081,7.4453138 180.980776,7.204181 181.472962,6.80861484 L181.115919,6.32634924 C180.671909,6.63500756 180.29547,6.77985397 179.783888,6.77985397 C179.021417,6.77985397 178.442264,6.29758837 178.365099,5.07254206 L181.637094,5.07254206 C181.646687,4.9664603 181.656281,4.80243998 181.656281,4.6288327 C181.656281,3.09533648 180.951787,2.14039225 179.590768,2.14039225 Z M178.365099,4.47460775 C178.432671,3.28811767 178.905461,2.78667817 179.610163,2.78667817 C180.449799,2.78667817 180.855227,3.37502552 180.855227,4.39728686 L180.855227,4.47460775 L178.365099,4.47460775 Z M185.976465,5.8828483 C185.658004,6.42284405 185.223587,6.79902788 184.654236,6.79902788 C184.075083,6.79902788 183.824193,6.5289258 183.824193,5.80552741 L183.824193,2.25606096 L183.013338,2.25606096 L183.013338,5.89243526 C183.013338,6.88593573 183.534513,7.4453138 184.432127,7.4453138 C185.165818,7.4453138 185.64841,7.12706853 186.034443,6.51933885 L186.092212,7.32964509 L186.78732,7.32964509 L186.78732,2.25606096 L185.976465,2.25606096 L185.976465,5.8828483 Z M189.556284,1.00225378 L188.745011,1.08895321 L188.745011,2.25606096 L187.867001,2.25606096 L187.867001,2.88317297 L188.745011,2.88317297 L188.745011,6.02748629 C188.745011,6.95346125 189.247625,7.4453138 190.088095,7.4453138 C190.511459,7.4453138 190.878513,7.32964509 191.205942,7.1076862 L190.897283,6.54830813 C190.647018,6.70253308 190.434294,6.7700586 190.192372,6.7700586 C189.739811,6.7700586 189.556284,6.51933885 189.556284,5.98893006 L189.556284,2.88317297 L190.694986,2.88317297 L190.782578,2.25606096 L189.556284,2.25606096 L189.556284,1.00225378 Z M193.87334,2.14039225 C192.841,2.14039225 192.07978,2.71915265 192.07978,3.51007656 C192.07978,4.23347495 192.513572,4.68677127 193.604306,4.97604726 C194.607448,5.24614934 194.86814,5.43913894 194.86814,5.99851701 C194.86814,6.47119565 194.415579,6.78944093 193.739866,6.78944093 C193.170515,6.78944093 192.707526,6.59645132 192.311275,6.26861909 L191.856628,6.77985397 C192.300847,7.16562476 192.899395,7.4453138 193.758635,7.4453138 C194.782633,7.4453138 195.716952,6.95346125 195.716952,5.92140454 C195.716952,5.03398582 195.120489,4.6288327 194.048525,4.34914367 C193.208054,4.12739319 192.918165,3.93440359 192.918165,3.50028119 C192.918165,3.0663672 193.303989,2.78667817 193.902537,2.78667817 C194.386381,2.78667817 194.772205,2.93131616 195.216424,3.25914839 L195.57305,2.71915265 C195.091292,2.35255577 194.569908,2.14039225 193.87334,2.14039225 Z M198.91199,2.14039225 C197.552222,2.14039225 196.711752,3.2110052 196.711752,4.83140926 C196.711752,6.47119565 197.560564,7.4453138 198.91199,7.4453138 C199.491769,7.4453138 200.002725,7.2523242 200.436516,6.88593573 L200.050692,6.33614461 C199.683638,6.61583365 199.374979,6.75088469 198.941188,6.75088469 C198.111145,6.75088469 197.581419,6.17212429 197.581419,4.82182231 C197.581419,3.46172495 198.111145,2.81564745 198.941188,2.81564745 C199.374979,2.81564745 199.704493,2.94090312 200.031922,3.2110052 L200.436516,2.68059641 C199.973527,2.2946172 199.502196,2.14039225 198.91199,2.14039225 Z M202.426115,0.124422023 L201.616928,0.220916824 L201.616928,7.32964509 L202.426115,7.32964509 L202.426115,3.70285775 C202.7744,3.15306664 203.189421,2.7768828 203.769199,2.7768828 C204.290583,2.7768828 204.618012,3.02781096 204.618012,3.80893951 L204.618012,7.32964509 L205.429284,7.32964509 L205.429284,3.69327079 C205.429284,2.73832656 204.887046,2.14039225 203.971496,2.14039225 C203.314553,2.14039225 202.793169,2.47801985 202.426115,2.98925473 L202.426115,0.124422023 Z M208.8871,2.14039225 C207.594069,2.14039225 206.801566,3.24956144 206.801566,4.84099622 C206.801566,6.45181333 207.623266,7.4453138 209.02266,7.4453138 C209.717143,7.4453138 210.276066,7.204181 210.768252,6.80861484 L210.411626,6.32634924 C209.967407,6.63500756 209.592011,6.77985397 209.078969,6.77985397 C208.317749,6.77985397 207.737971,6.29758837 207.660806,5.07254206 L210.933009,5.07254206 C210.943437,4.9664603 210.951779,4.80243998 210.951779,4.6288327 C210.951779,3.09533648 210.246868,2.14039225 208.8871,2.14039225 Z M207.660806,4.47460775 C207.727543,3.28811767 208.200959,2.78667817 208.90587,2.78667817 C209.74634,2.78667817 210.150934,3.37502552 210.150934,4.39728686 L210.150934,4.47460775 L207.660806,4.47460775 Z M213.04357,2.25606096 L212.349087,2.25606096 L212.349087,7.32964509 L213.16036,7.32964509 L213.16036,3.71265312 C213.506558,3.15306664 213.913237,2.7768828 214.5097,2.7768828 C215.031084,2.7768828 215.35017,3.02781096 215.35017,3.80893951 L215.35017,7.32964509 L216.161443,7.32964509 L216.161443,3.69327079 C216.161443,2.7287396 215.629632,2.14039225 214.703655,2.14039225 C214.017514,2.14039225 213.477361,2.49719376 213.110307,3.02781096 L213.04357,2.25606096 L213.04357,2.25606096 Z" id="Fill-2"></path>
                        <path d="M43.8287514,19.0196881 L47.4484045,19.0196881 L47.4484045,0.114835066 L43.8287514,0.114835066 L43.8287514,19.0196881 Z M34.9170554,0.114835066 L31.2974024,0.114835066 L31.2974024,19.0196881 L41.2685497,19.0196881 L41.6627156,15.7959698 L34.9170554,15.7959698 L34.9170554,0.114835066 Z M20.3178993,3.06532514 C22.7798724,3.06532514 24.7742687,4.07612382 24.7742687,9.48525142 C24.7742687,14.7851711 22.878101,16.069198 20.3913101,16.069198 L18.9141263,16.069198 L18.9141263,3.06532514 L20.3178993,3.06532514 Z M19.7508426,0.114835066 L15.2957245,0.114835066 L15.2957245,19.0196881 L20.1700349,19.0196881 C24.3552849,19.0196881 28.5407433,17.1072987 28.5407433,9.48525142 C28.5407433,1.67209026 24.2570562,0.114835066 19.7508426,0.114835066 L19.7508426,0.114835066 Z M5.49621669,16.041896 L3.77273127,16.041896 L3.77273127,10.5233521 L5.81697184,10.5233521 C7.63868592,10.5233521 8.96779683,11.2609225 8.96779683,13.3646342 C8.96779683,15.6048559 7.5156394,16.041896 5.49621669,16.041896 L5.49621669,16.041896 Z M5.151895,3.01072117 C7.24451996,3.01072117 8.30397131,3.55696928 8.30397131,5.30554679 C8.30397131,6.99931191 7.26933782,7.79148629 5.54606096,7.79148629 L3.77273127,7.79148629 L3.77273127,3.01072117 L5.151895,3.01072117 Z M8.86956817,9.02090926 C10.4451892,8.61117108 11.9968266,7.32714414 11.9968266,4.95041257 C11.9968266,1.45346597 9.26373412,0.114835066 4.80736476,0.114835066 L0.15453808,0.114835066 L0.15453808,19.0196881 L5.47265015,19.0196881 C9.65790008,19.0196881 12.7355228,17.7629631 12.7355228,13.5284461 C12.7355228,10.4414461 10.7895109,9.43064745 8.86956817,9.02090926 L8.86956817,9.02090926 Z" id="Fill-3"></path>
                        <polyline id="Fill-4" points="61.5914543 12.0433015 73.6829642 5.06712335 76.5438999 0.114835066 70.8218199 0.114835066 58.73031 7.09122164 61.5914543 12.0433015"></polyline>
                        <polyline id="Fill-5" points="62.0438066 12.8265142 65.6219576 19.0196881 72.7780509 6.63334026 62.0438066 12.8265142"></polyline>
                        <polyline id="Fill-6" points="69.0117848 0.114835066 54.6998067 0.114835066 58.2777491 6.30800898 69.0117848 0.114835066"></polyline>
                    </g>
                </g>
            </g>
        </g>
    </g>
</svg>
