<?xml version="1.0" encoding="UTF-8"?>
<svg width="85px" height="82px" viewBox="0 0 85 82" version="1.1" xmlns="http://www.w3.org/2000/svg" xmlns:xlink="http://www.w3.org/1999/xlink">
    <!-- Generator: Sketch 47 (45396) - http://www.bohemiancoding.com/sketch -->
    <title>icon besucher</title>
    <desc>Created with Sketch.</desc>
    <defs></defs>
    <g id="Startseite-Navigation" stroke="none" stroke-width="1" fill="none" fill-rule="evenodd">
        <g id="Startseite-Ausbaustufe-2.0" transform="translate(-178.000000, -1859.000000)" fill="#009CDE">
            <g id="Besucher" transform="translate(178.000000, 1857.000000)">
                <path d="M64.3731714,33.4922363 C64.3731714,37.5775269 61.0715997,40.9026877 57.0154995,40.9026877 C52.9595693,40.9026877 49.6605466,37.5775269 49.6605466,33.4922363 L49.6605466,31.6395807 C49.6605466,27.5542901 52.9595693,24.2289581 57.0154995,24.2289581 C61.0715997,24.2289581 64.3731714,27.5542901 64.3731714,31.6395807 L64.3731714,33.4922363 L64.3731714,33.4922363 Z M53.3368335,33.4922363 C53.3368335,35.5703121 54.9522721,37.1975476 57.0154995,37.1975476 C59.0787269,37.1975476 60.6945054,35.5703121 60.6945054,33.4922363 L60.6945054,31.6395807 C60.6945054,29.5615049 59.0787269,27.9342694 57.0154995,27.9342694 C54.9522721,27.9342694 53.3368335,29.5615049 53.3368335,31.6395807 L53.3368335,33.4922363 L53.3368335,33.4922363 Z M80.9264037,79.804862 L84.6052397,79.804862 L84.6052397,83.5100021 L0,83.5100021 L0,79.804862 L3.67883595,79.804862 L3.67883595,78.1408267 C3.67883595,72.8604842 7.1703993,69.4225277 12.881024,68.814732 C12.9122927,63.0234715 17.1296648,59.4256498 23.9098846,59.4256498 C28.0699873,59.4256498 31.2492031,60.7910078 33.1069744,63.1728958 C34.9644059,60.7910078 38.1437916,59.4256498 42.3013453,59.4256498 C46.461448,59.4256498 49.6408337,60.7910078 51.4982652,63.1728958 C53.3560366,60.7910078 56.5352523,59.4256498 60.6953551,59.4256498 C67.4755748,59.4256498 71.692777,63.0234715 71.7240457,68.814732 C77.4348404,69.4225277 80.9264037,72.8604842 80.9264037,78.1408267 L80.9264037,79.804862 Z M77.2475678,78.1408267 C77.2475678,73.1410185 72.637297,72.3942394 69.8898959,72.3942394 C67.1424947,72.3942394 62.534943,73.1410185 62.534943,78.1408267 L62.534943,79.804862 L77.2475678,79.804862 L77.2475678,78.1408267 L77.2475678,78.1408267 Z M33.1069744,72.3942394 C30.3594033,72.3942394 25.7493025,73.1410185 25.7493025,78.1408267 L25.7493025,79.804862 L40.4619273,79.804862 L40.4619273,78.1408267 C40.4619273,73.1410185 35.8543756,72.3942394 33.1069744,72.3942394 L33.1069744,72.3942394 Z M51.4982652,72.3942394 C48.750864,72.3942394 44.1405933,73.1410185 44.1405933,78.1408267 L44.1405933,79.804862 L58.8559371,79.804862 L58.8559371,78.1408267 C58.8559371,73.1410185 54.2456664,72.3942394 51.4982652,72.3942394 L51.4982652,72.3942394 Z M60.6953551,63.1309611 C57.9584901,63.1309611 53.3820372,63.8751728 53.3404022,68.8172995 C56.5950708,69.1632175 59.1266497,70.4236532 60.6953551,72.436174 C62.2642304,70.4236532 64.7956393,69.1632175 68.0479288,68.8172995 C68.0088429,63.8751728 63.4298409,63.1309611 60.6953551,63.1309611 L60.6953551,63.1309611 Z M42.3013453,63.1309611 C39.5668595,63.1309611 34.9878575,63.8751728 34.9489415,68.8172995 C38.2008911,69.1632175 40.7324699,70.4236532 42.3013453,72.436174 C43.8702206,70.4236532 46.4016295,69.1632175 49.6562982,68.8172995 C49.6146631,63.8751728 45.0383802,63.1309611 42.3013453,63.1309611 L42.3013453,63.1309611 Z M23.9098846,63.1309611 C21.1753987,63.1309611 16.5962268,63.8751728 16.5573108,68.8172995 C19.8096003,69.1632175 22.3408393,70.4236532 23.9098846,72.436174 C25.47859,70.4236532 28.0099989,69.1632175 31.2621184,68.8172995 C31.2232024,63.8751728 26.6440305,63.1309611 23.9098846,63.1309611 L23.9098846,63.1309611 Z M7.35767189,79.804862 L22.0702967,79.804862 L22.0702967,78.1408267 C22.0702967,73.1410185 17.4600259,72.3942394 14.7126248,72.3942394 C11.9652236,72.3942394 7.35767189,73.1410185 7.35767189,78.1408267 L7.35767189,79.804862 Z M45.980861,52.01691 L45.980861,57.574877 L49.6596969,57.574877 L49.6596969,52.01691 C49.6596969,48.9536267 52.1340064,46.4589431 55.1779509,46.4589431 L58.8567868,46.4589431 C61.8983521,46.4589431 64.3723217,48.9536267 64.3723217,52.01691 L64.3723217,57.574877 L68.0513276,57.574877 L68.0513276,52.01691 C68.0513276,46.9096122 63.9248727,42.7536318 58.8567868,42.7536318 L55.1779509,42.7536318 C50.1073158,42.7536318 45.980861,46.9096122 45.980861,52.01691 L45.980861,52.01691 Z M84.6052397,2 L84.6052397,64.9849861 L75.4081498,64.9849861 L75.4081498,61.2795036 L80.9264037,61.2795036 L80.9264037,5.7053113 L3.67883595,5.7053113 L3.67883595,61.2795036 L9.19708987,61.2795036 L9.19708987,64.9849861 L0,64.9849861 L0,2 L84.6052397,2 Z" id="icon-besucher"></path>
            </g>
        </g>
    </g>
</svg>