<?xml version="1.0" encoding="UTF-8"?>
<svg width="40px" height="40px" viewBox="0 0 40 40" version="1.1" xmlns="http://www.w3.org/2000/svg" xmlns:xlink="http://www.w3.org/1999/xlink">
    <!-- Generator: Sketch 47 (45396) - http://www.bohemiancoding.com/sketch -->
    <title>icon nationen</title>
    <desc>Created with Sketch.</desc>
    <defs>
        <polygon id="path-1" points="39.5917228 0 6.63474111e-05 0 6.63474111e-05 39.8754066 39.5917228 39.8754066 39.5917228 4.7481941e-15"></polygon>
    </defs>
    <g id="Startseite-Navigation" stroke="none" stroke-width="1" fill="none" fill-rule="evenodd">
        <g id="Startseite-Ausbaustufe-2.0" transform="translate(-1016.000000, -1695.000000)">
            <g id="Nationen" transform="translate(855.000000, 1695.000000)">
                <g id="icon-nationen" transform="translate(161.000000, 0.000000)">
                    <mask id="mask-2" fill="white">
                        <use xlink:href="#path-1"></use>
                    </mask>
                    <g id="Clip-2"></g>
                    <path d="M19.7958946,-8.35311141e-06 C8.88149666,-8.35311141e-06 6.63474111e-05,8.94416922 6.63474111e-05,19.9382839 C6.63474111e-05,30.9312291 8.88149666,39.8754066 19.7958946,39.8754066 C30.7102096,39.8754066 39.5917228,30.9312291 39.5917228,19.9382839 C39.5917228,8.94416922 30.7102096,-8.35311141e-06 19.7958946,-8.35311141e-06 L19.7958946,-8.35311141e-06 Z M38.153228,24.662386 L31.4656578,24.662386 C31.6890827,23.146881 31.8097521,21.5650523 31.8097521,19.9382839 C31.8097521,19.2273505 31.7755002,18.5137442 31.7310474,17.8052333 C32.9182514,17.4752854 33.8159319,16.4649766 33.9872741,15.2117593 L38.153228,15.2117593 C38.5366331,16.7245913 38.7423101,18.3065035 38.7423101,19.9382839 C38.7423101,21.5675582 38.5366331,23.1507234 38.153228,24.662386 L38.153228,24.662386 Z M27.8305661,14.3574866 L20.2199375,14.3574866 L20.2199375,0.882330805 C24.3693046,1.1534728 28.1060737,5.37112581 29.8913167,11.8266609 C28.8018922,12.2090663 27.9917903,13.1746025 27.8305661,14.3574866 L27.8305661,14.3574866 Z M19.3718517,14.3574866 L9.12018148,14.3574866 C10.4801375,6.77010491 14.5367841,1.18421225 19.3718517,0.873476507 L19.3718517,14.3574866 Z M19.3718517,15.2117593 L19.3718517,24.662386 L11.6787035,24.662386 C11.4730265,23.1660932 10.2299249,22.0061801 8.69995356,21.9563956 C8.65931577,21.2875619 8.63261094,20.6097069 8.63261094,19.9382839 C8.63261094,18.3065035 8.75336323,16.7245913 8.97927616,15.2117593 L19.3718517,15.2117593 Z M11.6787035,25.5179117 L19.3718517,25.5179117 L19.3718517,29.1626248 C17.8519984,29.3735408 16.6749124,30.6754568 16.6749124,32.2638009 C16.6749124,33.8508086 17.8519984,35.1539775 19.3718517,35.3649771 L19.3718517,38.9942369 C15.2186696,38.7218419 11.4755975,34.4928287 9.69408658,28.0244298 C10.7467712,27.6254852 11.5199673,26.6726458 11.6787035,25.5179117 L11.6787035,25.5179117 Z M20.2199375,35.3649771 C21.7397079,35.1539775 22.9180379,33.8508086 22.9180379,32.2638009 C22.9180379,30.6754568 21.7397079,29.3735408 20.2199375,29.1626248 L20.2199375,25.5179117 L30.4727688,25.5179117 C29.1129786,33.1040404 25.0550051,38.691186 20.2199375,39.0020053 L20.2199375,35.3649771 Z M20.2199375,24.662386 L20.2199375,15.2117593 L27.8305661,15.2117593 C28.038814,16.7348656 29.3212265,17.9152438 30.8866937,17.9266876 C30.9274144,18.5956047 30.9603393,19.2681973 30.9603393,19.9382839 C30.9603393,21.5675582 30.8397529,23.1507234 30.6136741,24.662386 L20.2199375,24.662386 Z M37.9132163,14.3574866 L33.9872741,14.3574866 C33.7778651,12.8266954 32.4852516,11.6412218 30.9095836,11.6412218 C30.8460559,11.6412218 30.7876702,11.6553386 30.7267135,11.659181 C29.4138641,6.86992459 27.0458421,3.23414932 24.1890884,1.37858915 C30.7267135,2.94772113 35.9604461,7.93519689 37.9132163,14.3574866 L37.9132163,14.3574866 Z M15.4230197,1.37341022 C11.98216,3.61521826 9.31200843,8.41474901 8.26570976,14.3574866 L1.67857291,14.3574866 C3.63391405,7.92876499 8.87643767,2.9387833 15.4230197,1.37341022 L15.4230197,1.37341022 Z M1.43856115,15.2117593 L8.1273754,15.2117593 C7.90378463,16.7284337 7.78319821,18.309093 7.78319821,19.9382839 C7.78319821,20.6404464 7.80998598,21.3488738 7.85435581,22.0471104 C6.62908499,22.3514977 5.69582572,23.3835247 5.52066856,24.662386 L1.43856115,24.662386 C1.05507312,23.1507234 0.849396144,21.5675582 0.849396144,19.9382839 C0.849396144,18.3065035 1.05507312,16.7245913 1.43856115,15.2117593 L1.43856115,15.2117593 Z M1.67724597,25.5179117 L5.52066856,25.5179117 C5.73016051,27.0486193 7.02393502,28.2354294 8.59968604,28.2354294 C8.68983558,28.2354294 8.7748432,28.2162173 8.86250472,28.2085324 C10.1753541,33.0016313 12.5471911,36.641249 15.4065157,38.4981456 C8.86756371,36.9290136 3.63134309,31.9415379 1.67724597,25.5179117 L1.67724597,25.5179117 Z M24.1699306,38.501988 C27.6108732,36.26018 30.2811077,31.4606493 31.3272405,25.5179117 L37.9145432,25.5179117 C35.9592021,31.9466333 30.7165955,36.936615 24.1699306,38.501988 L24.1699306,38.501988 Z" id="Fill-1" fill="#009CDE" mask="url(#mask-2)"></path>
                </g>
            </g>
        </g>
    </g>
</svg>