<?xml version="1.0" encoding="utf-8"?>
<!-- Generator: Adobe Illustrator 23.0.4, SVG Export Plug-In . SVG Version: 6.00 Build 0)  -->
<svg version="1.1" id="Ebene_1" xmlns="http://www.w3.org/2000/svg" xmlns:xlink="http://www.w3.org/1999/xlink" x="0px" y="0px"
	 viewBox="0 0 59.1 59.1" style="enable-background:new 0 0 59.1 59.1;" xml:space="preserve">
<g>
	<path fill="#009cde" d="M29.5,0C13.3,0,0,13.3,0,29.5s13.3,29.5,29.5,29.5s29.5-13.3,29.5-29.5S45.8,0,29.5,0z M29.5,58C13.9,58,1.1,45.2,1.1,29.5
		S13.9,1.1,29.5,1.1S58,13.9,58,29.5S45.2,58,29.5,58z"/>
	<path fill="#009cde" d="M35.8,29.8c0-1.7-1-3.3-2.6-3.9c-0.1-0.1-0.3-0.1-0.4-0.1c-0.6,0-1.1,0.5-1.1,1.1c0,1.3,1.9,0.9,1.9,2.9
		c0,2-1.9,1.7-1.9,2.9c0,0.6,0.5,1.1,1.1,1.1c0.1,0,0.3,0,0.4-0.1C34.8,33.1,35.8,31.5,35.8,29.8z"/>
	<path fill="#009cde" d="M28.3,19.7c-0.3,0-0.6,0.1-0.8,0.3L22,25.5h-4.4c-0.6,0-1.1,0.5-1.1,1.1V33c0,0.6,0.5,1.1,1.1,1.1H22l5.6,5.6
		c0.2,0.2,0.5,0.3,0.8,0.3c0.6,0,1.1-0.5,1.1-1.1V20.7C29.4,20.1,28.9,19.7,28.3,19.7z"/>
	<path fill="#009cde" d="M40.1,29.8c0-3.4-2-6.6-5.2-7.9c-0.1-0.1-0.3-0.1-0.4-0.1c-0.6,0-1.1,0.5-1.1,1.1c0,0.5,0.3,0.8,0.7,1
		c0.5,0.2,0.9,0.4,1.3,0.7c1.7,1.2,2.6,3.1,2.6,5.2s-1,4-2.6,5.2c-0.4,0.3-0.8,0.5-1.3,0.7c-0.4,0.2-0.7,0.5-0.7,1
		c0,0.6,0.5,1.1,1.1,1.1c0.1,0,0.3,0,0.4-0.1C38.1,36.4,40.1,33.2,40.1,29.8z"/>
	<path fill="#009cde" d="M36.6,18c-0.1-0.1-0.3-0.1-0.4-0.1c-0.6,0-1.1,0.5-1.1,1.1c0,0.5,0.3,0.8,0.7,1c0.2,0.1,0.5,0.2,0.8,0.4
		c0.5,0.3,0.9,0.5,1.4,0.9c2.7,2,4.4,5.2,4.4,8.6c0,3.4-1.6,6.6-4.4,8.6c-0.4,0.3-0.9,0.6-1.4,0.9c-0.3,0.1-0.5,0.2-0.8,0.4
		c-0.4,0.2-0.7,0.5-0.7,1c0,0.6,0.5,1.1,1.1,1.1c0.2,0,0.3,0,0.4-0.1c4.7-2,7.8-6.7,7.8-11.8S41.3,20,36.6,18z"/>
</g>
</svg>
