<?xml version="1.0" standalone="no"?>
<!DOCTYPE svg PUBLIC "-//W3C//DTD SVG 20010904//EN"
 "http://www.w3.org/TR/2001/REC-SVG-20010904/DTD/svg10.dtd">
<svg fill="#009F8E" version="1.0" xmlns="http://www.w3.org/2000/svg"
 viewBox="0 0 402.000000 358.000000"
 preserveAspectRatio="xMidYMid meet">
<g transform="translate(0.000000,358.000000) scale(0.100000,-0.100000)"
 stroke="none">
<path d="M1257 3560 c-13 -11 -28 -31 -31 -45 -5 -21 208 -1232 230 -1307 5
-17 -17 -18 -375 -18 l-380 0 -126 210 c-69 115 -135 214 -145 220 -11 6 -97
10 -200 10 -179 0 -181 0 -205 -25 -18 -17 -25 -35 -25 -61 0 -20 32 -198 71
-395 l72 -359 -72 -359 c-39 -197 -71 -375 -71 -395 0 -26 7 -44 25 -61 24
-25 26 -25 205 -25 103 0 189 4 200 10 10 6 76 105 145 220 l126 210 380 0
c358 0 380 -1 375 -17 -22 -76 -235 -1287 -230 -1308 3 -14 18 -34 31 -45 24
-19 41 -20 258 -20 207 0 235 2 253 18 11 9 184 322 383 695 l363 677 386 0
c562 0 693 16 876 105 162 79 244 177 244 295 0 118 -82 216 -244 295 -183 89
-314 105 -877 105 l-385 0 -363 678 c-199 372 -372 685 -383 695 -18 15 -46
17 -253 17 -217 0 -234 -1 -258 -20z"/>
</g>
</svg>
