<?xml version="1.0" encoding="UTF-8" standalone="no"?>
<!-- Generator: Adobe Illustrator 21.1.0, SVG Export Plug-In . SVG Version: 6.00 Build 0)  -->

<svg
   xmlns:dc="http://purl.org/dc/elements/1.1/"
   xmlns:cc="http://creativecommons.org/ns#"
   xmlns:rdf="http://www.w3.org/1999/02/22-rdf-syntax-ns#"
   xmlns:svg="http://www.w3.org/2000/svg"
   xmlns="http://www.w3.org/2000/svg"
   xmlns:sodipodi="http://sodipodi.sourceforge.net/DTD/sodipodi-0.dtd"
   xmlns:inkscape="http://www.inkscape.org/namespaces/inkscape"
   version="1.1"
   id="Ebene_1"
   x="0px"
   y="0px"
   width="47px"
   height="47px"
   viewBox="0 0 47 47"
   style="enable-background:new 0 0 47 47;"
   xml:space="preserve"
   sodipodi:docname="i-icon-conferences.svg"
   inkscape:version="0.92.1 r"><metadata
     id="metadata11"><rdf:RDF><cc:Work
         rdf:about=""><dc:format>image/svg+xml</dc:format><dc:type
           rdf:resource="http://purl.org/dc/dcmitype/StillImage" /><dc:title></dc:title></cc:Work></rdf:RDF></metadata><defs
     id="defs9" /><sodipodi:namedview
     pagecolor="#ffffff"
     bordercolor="#666666"
     borderopacity="1"
     objecttolerance="10"
     gridtolerance="10"
     guidetolerance="10"
     inkscape:pageopacity="0"
     inkscape:pageshadow="2"
     inkscape:window-width="1366"
     inkscape:window-height="768"
     id="namedview7"
     showgrid="false"
     inkscape:zoom="5.0212766"
     inkscape:cx="0.49788136"
     inkscape:cy="31.466102"
     inkscape:window-x="1366"
     inkscape:window-y="0"
     inkscape:window-maximized="0"
     inkscape:current-layer="Ebene_1" /><style
     type="text/css"
     id="style2">
	.st0{fill:#FFFFFF;}
	.st1{fill:#00C7B1;}
</style><circle
     id="Oval-2"
     class="st0"
     cx="23.1"
     cy="23.1"
     r="23.1" /><path
     id="i"
     class="st1"
     d="M28.6,32.8v-3.2c0-0.2-0.1-0.3-0.2-0.5s-0.3-0.2-0.5-0.2H26V18.6c0-0.2-0.1-0.3-0.2-0.5S25.5,18,25.4,18  h-6.4c-0.2,0-0.3,0.1-0.5,0.2c-0.1,0.1-0.2,0.3-0.2,0.5v3.2c0,0.2,0.1,0.3,0.2,0.5c0.1,0.1,0.3,0.2,0.5,0.2h1.9v6.4h-1.9  c-0.2,0-0.3,0.1-0.5,0.2c-0.1,0.1-0.2,0.3-0.2,0.5v3.2c0,0.2,0.1,0.3,0.2,0.5c0.1,0.1,0.3,0.2,0.5,0.2h9c0.2,0,0.3-0.1,0.5-0.2  S28.6,33,28.6,32.8z M26,14.8v-3.2c0-0.2-0.1-0.3-0.2-0.5s-0.3-0.2-0.5-0.2h-3.9c-0.2,0-0.3,0.1-0.5,0.2s-0.2,0.3-0.2,0.5v3.2  c0,0.2,0.1,0.3,0.2,0.5c0.1,0.1,0.3,0.2,0.5,0.2h3.9c0.2,0,0.3-0.1,0.5-0.2C25.9,15.1,26,15,26,14.8z M38.9,23.1  c0,2.8-0.7,5.4-2.1,7.7c-1.4,2.4-3.3,4.2-5.6,5.6s-4.9,2.1-7.7,2.1s-5.4-0.7-7.7-2.1s-4.2-3.3-5.6-5.6S8,25.9,8,23.1  s0.7-5.4,2.1-7.7s3.3-4.2,5.6-5.6s4.9-2.1,7.7-2.1s5.4,0.7,7.7,2.1s4.2,3.3,5.6,5.6C38.2,17.8,38.9,20.3,38.9,23.1z"
     style="fill:#2DCCD3;fill-opacity:1" /></svg>
