<?xml version="1.0" encoding="UTF-8"?>
<svg width="47px" height="47px" viewBox="0 0 47 47" version="1.1" xmlns="http://www.w3.org/2000/svg" xmlns:xlink="http://www.w3.org/1999/xlink">
    <!-- Generator: Sketch 46.2 (44496) - http://www.bohemiancoding.com/sketch -->
    <title>i icon space</title>
    <desc>Created with Sketch.</desc>
    <defs></defs>
    <g id="Themen" stroke="none" stroke-width="1" fill="none" fill-rule="evenodd">
        <g id="Landingpage-Space" transform="translate(-744.000000, -545.000000)">
            <g id="space-infobox" transform="translate(711.000000, 527.000000)">
                <g id="i-icon-space" transform="translate(33.000000, 18.000000)">
                    <circle id="Oval-2" fill="#FFFFFF" cx="23.1000004" cy="23.595168" r="23.1000004"></circle>
                    <path d="M28.5714286,33.2808819 L28.5714286,30.0665962 C28.5714286,29.8790952 28.5111613,29.7250789 28.390625,29.6045426 C28.2700887,29.4840063 28.1160724,29.423739 27.9285714,29.423739 L26,29.423739 L26,19.1380247 C26,18.9505238 25.9397327,18.7965075 25.8191964,18.6759712 C25.6986601,18.5554348 25.5446438,18.4951676 25.3571429,18.4951676 L18.9285714,18.4951676 C18.7410705,18.4951676 18.5870542,18.5554348 18.4665179,18.6759712 C18.3459815,18.7965075 18.2857143,18.9505238 18.2857143,19.1380247 L18.2857143,22.3523104 C18.2857143,22.5398114 18.3459815,22.6938277 18.4665179,22.814364 C18.5870542,22.9349003 18.7410705,22.9951676 18.9285714,22.9951676 L20.8571429,22.9951676 L20.8571429,29.423739 L18.9285714,29.423739 C18.7410705,29.423739 18.5870542,29.4840063 18.4665179,29.6045426 C18.3459815,29.7250789 18.2857143,29.8790952 18.2857143,30.0665962 L18.2857143,33.2808819 C18.2857143,33.4683828 18.3459815,33.6223991 18.4665179,33.7429354 C18.5870542,33.8634718 18.7410705,33.923739 18.9285714,33.923739 L27.9285714,33.923739 C28.1160724,33.923739 28.2700887,33.8634718 28.390625,33.7429354 C28.5111613,33.6223991 28.5714286,33.4683828 28.5714286,33.2808819 Z M26,15.2808819 L26,12.0665962 C26,11.8790952 25.9397327,11.7250789 25.8191964,11.6045426 C25.6986601,11.4840063 25.5446438,11.423739 25.3571429,11.423739 L21.5,11.423739 C21.3124991,11.423739 21.1584827,11.4840063 21.0379464,11.6045426 C20.9174101,11.7250789 20.8571429,11.8790952 20.8571429,12.0665962 L20.8571429,15.2808819 C20.8571429,15.4683828 20.9174101,15.6223991 21.0379464,15.7429354 C21.1584827,15.8634718 21.3124991,15.923739 21.5,15.923739 L25.3571429,15.923739 C25.5446438,15.923739 25.6986601,15.8634718 25.8191964,15.7429354 C25.9397327,15.6223991 26,15.4683828 26,15.2808819 Z M38.8571429,23.6380247 C38.8571429,26.4371459 38.1674176,29.0185933 36.7879464,31.3824444 C35.4084752,33.7462955 33.5368422,35.6179285 31.1729911,36.9973997 C28.80914,38.3768709 26.2276926,39.0665962 23.4285714,39.0665962 C20.6294503,39.0665962 18.0480029,38.3768709 15.6841518,36.9973997 C13.3203007,35.6179285 11.4486676,33.7462955 10.0691964,31.3824444 C8.68972525,29.0185933 8,26.4371459 8,23.6380247 C8,20.8389036 8.68972525,18.2574562 10.0691964,15.8936051 C11.4486676,13.529754 13.3203007,11.6581209 15.6841518,10.2786497 C18.0480029,8.89917855 20.6294503,8.2094533 23.4285714,8.2094533 C26.2276926,8.2094533 28.80914,8.89917855 31.1729911,10.2786497 C33.5368422,11.6581209 35.4084752,13.529754 36.7879464,15.8936051 C38.1674176,18.2574562 38.8571429,20.8389036 38.8571429,23.6380247 Z" id="ïš" fill="#485CC7"></path>
                </g>
            </g>
        </g>
    </g>
</svg>