<?xml version="1.0" encoding="utf-8"?>
<!-- Generator: Adobe Illustrator 23.0.2, SVG Export Plug-In . SVG Version: 6.00 Build 0)  -->
<svg version="1.1" id="Ebene_1" xmlns="http://www.w3.org/2000/svg" xmlns:xlink="http://www.w3.org/1999/xlink" x="0px" y="0px"
	 viewBox="0 0 510.2 510.2" style="enable-background:new 0 0 510.2 510.2;" xml:space="preserve">
<style type="text/css">
	.st0{fill:#2DCCD3;}
</style>
<title>Mask</title>
<desc>Created with Sketch.</desc>
<g>
	<path class="st0" d="M61.1,124.7h-0.7C23.6,124.7,0,99.5,0,67.9c0-32.2,24.6-56.8,61.8-56.8c37.5,0,60.8,24.6,61.1,56.8
		C123.2,99.5,99.3,124.7,61.1,124.7z M115.9,498.8H6.3V169.6h109.6V498.8z M510.2,498.8H401V322.7c0-44.2-16-74.4-55.5-74.4
		c-30.2,0-48.2,20.2-56.2,39.9c-2.7,7.3-3.7,16.9-3.7,26.9v183.7H176.4c1.3-298.3,0-329.2,0-329.2h109.3v47.8H285
		c14.3-22.6,40.2-55.5,99.3-55.5c72.1,0,125.9,47.2,125.9,148.2L510.2,498.8L510.2,498.8z"/>
</g>
</svg>
